<?xml version="1.0" standalone="no"?>
<!DOCTYPE svg PUBLIC "-//W3C//DTD SVG 20010904//EN"
 "http://www.w3.org/TR/2001/REC-SVG-20010904/DTD/svg10.dtd">
<svg version="1.0" xmlns="http://www.w3.org/2000/svg"
 width="471.000000pt" height="471.000000pt" viewBox="0 0 471.000000 471.000000"
 preserveAspectRatio="xMidYMid meet">
<metadata>
Created by potrace 1.11, written by Peter Selinger 2001-2013
</metadata>
<g transform="translate(0.000000,471.000000) scale(0.100000,-0.100000)"
fill="#000000" stroke="none">
<path d="M1323 4685 c15 -14 46 -28 68 -31 22 -4 39 -12 39 -19 0 -17 90 -76
103 -68 5 3 15 0 21 -8 15 -20 72 -59 85 -59 20 0 11 20 -13 30 -13 4 -32 20
-44 34 -11 14 -27 26 -36 26 -10 0 -16 8 -16 21 0 12 -8 23 -20 26 -10 3 -27
16 -36 30 -13 21 -14 27 -3 34 9 5 -24 9 -81 9 l-95 -1 28 -24z"/>
<path d="M1611 4687 c19 -13 33 -29 31 -36 -2 -9 3 -9 16 -2 14 7 25 6 38 -4
19 -13 19 -14 -1 -21 -19 -8 -18 -8 5 -14 14 -3 26 -14 28 -24 3 -13 0 -16 -9
-11 -9 6 -11 2 -7 -13 4 -15 2 -19 -8 -15 -17 6 -18 -9 -2 -25 8 -8 8 -15 -1
-25 -9 -12 -8 -16 5 -21 27 -10 39 -7 26 6 -15 15 -16 48 -2 48 6 0 13 -7 16
-15 4 -8 15 -15 25 -15 10 0 19 -4 19 -10 0 -5 -4 -10 -9 -10 -17 0 -2 -44 21
-62 26 -20 38 -22 38 -8 0 6 -5 10 -10 10 -6 0 -20 8 -31 19 -17 16 -18 19 -4
25 11 4 14 13 9 31 -5 20 -3 24 10 19 9 -3 16 -1 16 6 0 6 5 8 11 4 8 -5 8 -8
0 -13 -8 -5 -6 -14 7 -29 14 -16 21 -19 30 -10 9 9 16 7 27 -9 8 -11 28 -23
46 -27 19 -3 33 -13 36 -25 3 -12 11 -17 19 -14 10 4 12 0 7 -13 -5 -13 -3
-16 9 -11 12 4 17 -2 21 -26 2 -18 1 -39 -4 -48 -9 -18 -5 -22 49 -53 18 -10
36 -16 39 -13 3 3 18 -7 33 -23 18 -18 32 -25 39 -19 8 6 8 5 1 -3 -12 -15
-13 -41 -1 -34 5 3 8 -1 7 -10 0 -9 6 -21 15 -26 21 -14 254 85 291 124 14 15
33 28 42 28 9 0 15 3 15 8 -3 20 3 30 27 40 28 13 23 37 -7 29 -10 -3 -22 0
-25 5 -4 7 6 9 29 6 21 -2 38 1 41 7 2 6 16 11 32 13 34 3 42 15 38 56 -1 17
-3 37 -3 44 -1 6 -12 12 -25 12 -13 0 -26 6 -28 12 -5 15 -64 4 -357 -66 -107
-26 -199 -45 -205 -43 -5 2 -10 11 -12 20 -1 9 2 15 7 11 5 -3 9 -1 9 4 0 4
26 13 58 19 31 6 122 27 202 47 227 57 218 55 231 40 19 -23 36 -16 41 16 4
27 2 30 -24 30 -33 0 -71 17 -64 29 3 4 -11 24 -30 45 -19 20 -32 41 -29 45 7
13 -27 6 -243 -50 -189 -49 -204 -51 -220 -36 -10 11 -12 17 -4 17 7 0 12 -4
12 -10 0 -19 42 -10 47 10 3 11 10 20 15 20 5 0 6 -4 3 -10 -8 -13 1 -12 48 1
21 5 35 14 32 20 -8 11 8 12 21 0 5 -5 18 -5 29 -1 16 6 11 9 -22 14 -24 4
-43 12 -43 18 0 6 7 7 18 3 9 -4 26 -8 37 -9 11 -1 27 -5 35 -10 8 -5 12 -5 7
-1 -4 5 5 14 20 21 l28 13 -35 -4 c-19 -2 -43 -6 -52 -10 -11 -4 -18 -3 -18 4
0 8 -89 11 -306 11 l-307 0 34 -23z m533 -29 c-3 -4 -14 -8 -25 -8 -18 0 -18
1 -1 18 16 17 37 9 26 -10z m-176 -18 c8 0 13 -3 10 -6 -8 -8 37 -51 62 -59
51 -16 133 -14 116 3 -11 11 69 34 121 35 35 1 53 6 53 15 0 7 14 12 36 12 19
0 33 4 30 8 -5 9 41 8 51 -1 3 -4 16 -7 27 -8 37 -1 -18 -18 -159 -51 -161
-36 -226 -47 -219 -36 10 15 -9 8 -25 -10 -9 -10 -25 -24 -36 -30 -16 -8 -4
-10 55 -8 102 5 102 5 95 16 -4 6 7 8 27 5 23 -4 27 -3 14 3 -15 6 0 13 60 26
44 9 90 20 103 23 15 4 22 2 18 -4 -3 -5 7 -8 26 -6 18 2 1 -6 -38 -17 -38
-12 -74 -25 -80 -30 -6 -5 -35 -12 -65 -16 -30 -4 -59 -10 -65 -14 -5 -4 -28
-11 -50 -15 -22 -5 -42 -9 -45 -10 -71 -19 -143 -14 -121 8 18 18 13 35 -11
39 -28 4 -36 34 -11 42 10 3 -13 3 -52 1 -50 -3 -65 -1 -52 6 9 5 17 17 17 26
0 10 6 14 20 10 11 -3 20 -1 20 3 0 14 45 60 48 50 2 -6 11 -10 20 -10z m-126
-45 c-5 -27 -18 -31 -42 -14 -12 8 -9 9 9 4 19 -6 23 -4 18 8 -3 9 -1 18 6 21
7 2 13 5 13 5 1 1 -1 -10 -4 -24z m45 19 c-3 -3 -12 -4 -19 -1 -8 3 -5 6 6 6
11 1 17 -2 13 -5z m605 -21 c-6 -2 -9 -10 -5 -16 4 -7 0 -8 -11 -4 -10 4 -27
8 -39 8 -17 1 -15 3 8 9 35 9 67 11 47 3z m-408 -248 c-16 -11 -14 -13 16 -11
27 1 35 -3 34 -16 -1 -11 4 -14 13 -11 13 5 13 3 3 -17 -11 -21 -13 -22 -22
-6 -8 13 -13 15 -24 5 -9 -7 -14 -8 -14 -1 0 5 -9 8 -20 5 -24 -6 -24 -3 -5
43 8 21 19 33 25 29 7 -5 5 -11 -6 -20z m66 15 c0 -5 -5 -10 -11 -10 -5 0 -7
5 -4 10 3 6 8 10 11 10 2 0 4 -4 4 -10z m37 4 c-3 -3 -12 -4 -19 -1 -8 3 -5 6
6 6 11 1 17 -2 13 -5z m203 -63 c-8 -5 -31 -12 -50 -15 -35 -7 -35 -7 -10 8
14 9 36 15 50 15 19 0 21 -2 10 -8z m-110 -22 c13 -9 13 -10 0 -8 -36 4 -42
-1 -19 -19 34 -28 7 -35 -29 -8 -32 23 -32 23 -9 34 28 14 39 14 57 1z"/>
<path d="M1925 4609 c-11 -17 1 -21 15 -4 8 9 8 15 2 15 -6 0 -14 -5 -17 -11z"/>
<path d="M2548 4683 c11 -16 36 -45 56 -67 20 -21 36 -42 36 -47 0 -4 21 -29
46 -54 25 -25 40 -45 33 -45 -12 0 -12 -2 0 -9 11 -7 11 -10 0 -15 -8 -3 2 -4
21 -2 48 6 91 28 85 44 -4 10 2 12 23 7 19 -4 33 -1 41 9 14 16 -1 32 -20 20
-8 -4 -7 -9 2 -15 8 -5 10 -9 4 -9 -23 0 -47 39 -25 41 14 2 22 5 44 14 14 6
23 3 33 -11 12 -17 11 -21 -8 -36 -22 -19 -17 -22 16 -9 13 6 27 3 42 -9 14
-11 32 -15 48 -12 22 4 24 7 13 21 -7 9 -9 13 -4 9 4 -3 21 -2 39 3 22 6 28 6
20 -2 -8 -8 -4 -17 15 -34 l26 -22 -65 4 c-35 2 -86 6 -114 9 -27 2 -57 0 -65
-5 -13 -9 -13 -14 3 -42 17 -31 22 -70 11 -82 -4 -3 -17 1 -30 10 -16 10 -24
11 -24 4 0 -7 -6 -11 -12 -9 -7 1 -23 -3 -35 -10 -12 -7 -29 -9 -38 -6 -20 8
-16 -16 5 -33 9 -8 11 -12 3 -13 -6 0 -20 -3 -30 -6 -15 -5 -15 -4 -3 5 13 9
13 11 -2 11 -10 0 -18 -5 -18 -11 0 -6 -6 -9 -12 -6 -7 2 -12 9 -11 15 2 6
-11 6 -39 -1 -38 -9 -39 -11 -19 -22 12 -6 18 -15 14 -19 -11 -11 -10 -30 2
-38 6 -5 4 -8 -5 -9 -14 -1 41 -19 67 -21 7 -1 10 -5 8 -9 -3 -4 7 -15 22 -24
23 -16 24 -18 9 -27 -13 -7 -16 -17 -11 -35 4 -16 0 -34 -11 -50 -13 -20 -14
-31 -5 -49 6 -13 15 -24 20 -24 5 0 12 -12 15 -26 5 -18 11 -24 23 -20 10 4
14 2 10 -8 -4 -9 1 -17 11 -19 15 -4 15 -5 -1 -6 -10 0 -15 -5 -12 -11 4 -6
-14 -8 -47 -6 -47 3 -195 -19 -255 -38 -14 -4 -23 -15 -23 -27 0 -10 -7 -19
-15 -19 -8 0 -14 -6 -12 -12 1 -9 -10 -12 -35 -11 -21 2 -38 -2 -38 -7 0 -6 7
-10 16 -10 8 0 12 -5 9 -10 -4 -6 -15 -8 -25 -5 -10 3 -20 0 -23 -8 -3 -9 -15
-13 -29 -10 -16 3 -33 -4 -51 -21 -15 -14 -33 -24 -40 -22 -6 1 -9 1 -4 -1 4
-3 7 -19 7 -36 0 -23 3 -28 9 -18 8 12 11 12 25 -1 12 -13 13 -19 2 -33 -13
-18 -14 -17 -24 1 -10 17 -11 17 -12 2 0 -24 -30 -11 -30 13 0 10 -4 19 -9 19
-18 0 -41 -31 -41 -55 0 -13 -5 -27 -10 -30 -6 -4 -8 -10 -6 -14 3 -3 -4 -7
-14 -7 -10 0 -16 5 -12 10 7 13 12 56 6 56 -3 0 -14 -9 -25 -19 -13 -12 -17
-21 -10 -26 6 -3 11 -11 11 -16 0 -6 -4 -7 -10 -4 -5 3 -10 2 -10 -4 0 -6 -6
-8 -13 -5 -7 2 -21 -4 -31 -15 -13 -15 -15 -26 -8 -52 7 -29 14 -35 48 -42 89
-20 95 -42 10 -42 -36 -1 -63 2 -61 6 5 8 -86 21 -93 14 -3 -3 4 -5 16 -5 20
0 43 -19 25 -21 -42 -5 -173 -2 -173 3 0 4 -7 5 -15 2 -8 -4 -21 -1 -29 5 -11
10 -66 12 -66 3 0 -1 9 -20 19 -40 l19 -38 -24 -2 c-20 -1 -24 3 -24 26 0 15
-5 33 -12 40 -9 9 -9 12 0 12 7 0 12 5 12 10 0 7 -6 7 -19 0 -27 -14 -221 -13
-201 1 11 8 9 8 -10 3 -14 -4 -33 -8 -42 -8 -10 0 -18 -4 -18 -8 0 -5 -8 -4
-17 1 -45 24 -230 55 -194 32 25 -16 -6 -21 -143 -22 -124 -1 -136 -3 -136
-19 0 -17 9 -19 79 -17 61 0 78 4 74 14 -6 15 12 16 42 3 19 -8 19 -9 -3 -9
-13 -1 -20 -5 -17 -11 3 -5 24 -8 45 -6 40 4 63 -10 40 -24 -9 -6 -10 -12 -1
-26 10 -18 10 -18 11 3 0 23 13 37 24 26 11 -11 56 -9 56 2 0 33 89 44 115 15
25 -27 45 -113 32 -136 -6 -10 -11 -59 -12 -109 -2 -144 1 -135 -44 -135 -54
0 -71 8 -71 34 0 11 -7 34 -15 49 -10 20 -15 63 -16 138 -1 60 -5 109 -9 109
-5 0 -16 3 -26 7 -13 5 -16 3 -11 -10 4 -11 -3 -20 -23 -31 -29 -14 -30 -14
-30 10 0 18 -10 28 -42 44 -32 15 -44 17 -50 8 -4 -7 -8 -9 -8 -4 0 5 -7 3
-15 -4 -12 -10 -19 -10 -27 -2 -18 18 -38 14 -38 -5 0 -10 6 -41 12 -70 12
-49 15 -53 48 -60 29 -5 32 -7 15 -14 -16 -6 -17 -8 -3 -8 9 -1 23 7 30 17 21
30 36 34 31 9 -4 -19 0 -23 23 -25 40 -3 50 -25 16 -34 -15 -4 -35 -5 -44 -2
-9 3 -36 0 -59 -6 -33 -9 -44 -9 -50 1 -4 7 -5 17 -3 21 3 4 -9 8 -25 8 -21 0
-31 -5 -31 -15 0 -12 4 -14 19 -5 26 14 38 -5 16 -26 -12 -12 -41 -18 -103
-21 -112 -6 -116 -7 -109 -41 7 -36 -22 -101 -46 -102 -10 0 -27 -5 -37 -10
-12 -6 -28 -7 -44 -1 -23 9 -25 8 -31 -30 -4 -21 -11 -39 -16 -39 -5 0 -9 -7
-9 -16 0 -9 5 -12 13 -8 9 5 9 3 -1 -7 -11 -12 -14 -12 -22 1 -5 8 -7 17 -4
21 2 4 -1 9 -8 11 -9 3 -8 14 5 40 21 45 21 50 -2 70 -18 15 -19 14 -17 -16 1
-27 -3 -31 -27 -34 -20 -3 -27 1 -27 15 -1 17 -1 17 -11 1 -6 -12 -22 -18 -45
-18 l-35 0 5 48 c6 51 -20 145 -39 139 -5 -2 -11 -22 -13 -46 -5 -63 -22 -39
-22 32 -1 34 -5 81 -9 104 -4 23 -5 47 -1 54 8 12 7 16 -35 63 -18 21 -25 24
-25 12 0 -9 -8 -16 -19 -16 -22 0 -40 20 -19 21 7 0 4 4 -7 9 -30 13 -33 12
-40 -10 -8 -27 -25 -26 -25 2 0 12 -3 18 -6 15 -4 -3 -15 -2 -25 4 -13 6 -26
6 -39 -1 -28 -15 -16 -32 15 -20 16 6 27 5 34 -4 9 -11 6 -15 -14 -20 -14 -4
-25 -11 -25 -17 0 -6 -7 -3 -16 5 -22 23 -41 20 -40 -6 1 -16 9 -25 26 -28 20
-4 27 -14 35 -47 6 -23 19 -50 30 -58 20 -16 20 -16 -3 -10 -15 5 -22 3 -20
-6 2 -7 -5 -15 -16 -17 -15 -3 -18 1 -14 22 4 22 2 26 -18 26 -21 0 -24 -5
-24 -40 l0 -40 53 2 c28 2 62 -1 74 -5 16 -6 22 -4 26 10 4 15 5 15 6 1 1 -10
15 -19 38 -25 37 -8 58 -33 29 -33 -9 0 -16 -5 -16 -11 0 -6 7 -9 15 -5 8 3
15 1 15 -5 0 -6 4 -8 8 -5 5 3 6 -8 4 -25 -4 -28 12 -41 21 -16 2 6 8 9 12 5
4 -4 2 -14 -4 -22 -8 -9 -10 -28 -6 -50 4 -21 2 -47 -6 -64 -11 -26 -15 -28
-27 -16 -9 10 -13 30 -10 59 2 31 -1 46 -11 50 -10 4 -11 8 -1 20 9 11 8 20
-6 44 -20 33 -38 37 -111 19 -36 -9 -43 -15 -43 -34 0 -29 14 -30 62 -4 25 13
39 16 44 9 7 -13 -13 -29 -37 -29 -9 0 -19 -3 -23 -7 -4 -4 -15 -8 -24 -8 -13
0 -17 -10 -17 -45 0 -39 3 -45 23 -48 16 -2 22 -8 18 -18 -3 -8 -1 -14 5 -14
7 0 10 12 7 28 -3 24 -1 28 22 27 14 -1 35 2 47 6 20 7 21 6 12 -24 -13 -44
-11 -51 6 -37 12 10 15 10 15 0 0 -6 -9 -14 -20 -17 -11 -3 -20 -12 -20 -19 0
-8 -10 -14 -22 -14 -21 1 -21 2 -5 11 9 5 17 20 17 32 0 13 5 28 12 35 7 7 8
12 2 12 -18 0 -30 -15 -29 -39 0 -13 -6 -26 -13 -28 -7 -3 -10 1 -6 11 5 12 2
15 -10 10 -18 -7 -22 -24 -6 -24 6 0 10 -4 10 -10 0 -18 -45 -10 -58 10 -8 13
-23 20 -42 20 l-30 0 0 -100 0 -100 27 5 c67 14 133 21 133 14 0 -14 85 4 103
22 10 11 27 19 38 19 24 0 69 46 69 71 0 25 42 35 88 21 46 -13 122 -8 133 10
5 7 13 13 19 13 19 0 13 20 -11 32 -22 11 -13 19 15 14 18 -4 75 21 80 34 3 8
10 15 17 15 6 0 9 -7 5 -15 -7 -18 10 -22 123 -29 47 -3 90 -1 96 4 6 5 35 7
64 3 51 -6 52 -6 31 -25 -11 -10 -20 -26 -20 -36 1 -15 2 -15 10 -1 8 13 19
14 66 8 32 -4 60 -8 63 -7 20 2 31 -4 40 -20 8 -14 6 -18 -10 -19 -21 -2 -26
13 -6 20 6 3 2 6 -10 6 -38 2 -22 -39 16 -42 27 -2 22 -21 -7 -25 -28 -4 -47
16 -47 48 0 16 -6 25 -15 25 -9 0 -16 -10 -17 -25 -1 -14 0 -18 3 -7 7 22 27
22 22 0 -2 -12 -15 -18 -42 -20 -21 -1 -40 -4 -42 -6 -2 -2 20 -41 49 -88 35
-54 59 -84 70 -83 9 1 17 -2 17 -7 0 -5 11 -8 25 -7 14 1 25 6 25 11 0 5 6 4
14 -2 8 -6 18 -11 22 -10 22 4 34 -2 34 -18 0 -15 2 -16 9 -3 6 8 7 18 5 22
-3 4 6 8 20 8 14 0 28 5 31 10 3 6 -3 10 -15 10 -17 0 -21 5 -18 28 2 18 9 27
21 27 10 0 24 8 31 18 7 9 18 17 23 17 6 0 13 9 16 20 3 11 13 20 23 20 9 0
26 8 37 18 12 9 17 11 12 3 -5 -9 -3 -12 5 -9 8 2 16 10 18 16 2 8 -11 12 -40
13 -23 1 -34 3 -23 6 43 9 45 12 36 36 -7 19 -6 23 10 23 14 0 15 -3 7 -14 -8
-9 -8 -16 0 -24 9 -9 12 -8 12 5 0 9 5 17 10 17 6 0 10 -5 10 -12 0 -6 3 -8 6
-5 4 4 1 13 -6 22 -11 13 -10 15 1 10 8 -3 31 3 51 14 31 15 39 16 49 5 15
-18 2 -71 -20 -77 -12 -3 -18 -14 -19 -36 0 -18 -8 -62 -17 -98 -16 -65 -14
-97 4 -52 5 13 10 20 11 14 2 -12 5 -28 15 -70 5 -24 4 -27 -5 -15 -10 13 -11
12 -5 -5 3 -11 7 -24 8 -29 3 -12 -43 -24 -77 -20 -32 3 -58 -16 -46 -35 4 -7
5 -22 3 -32 -4 -15 -15 -19 -49 -19 -24 0 -44 -5 -44 -10 0 -18 119 -10 131 9
9 14 10 14 5 -1 -3 -11 0 -18 8 -18 24 0 46 12 40 21 -3 5 0 9 5 9 6 0 11 -4
11 -10 0 -5 15 -10 34 -10 30 0 34 4 40 31 3 17 6 57 6 88 0 73 8 98 31 104
10 3 19 13 20 24 0 13 5 9 14 -12 22 -48 17 -9 -19 130 -30 115 -35 127 -44
105 -10 -24 -11 -24 -12 10 -1 47 -22 75 -47 62 -10 -5 -24 -7 -31 -5 -7 3
-23 -2 -35 -9 -26 -17 -206 -42 -297 -42 -95 1 -160 13 -153 30 7 19 42 28 58
14 10 -8 28 -10 52 -5 53 10 193 14 188 4 -6 -9 36 1 51 13 7 5 34 8 62 7 30
-1 58 3 67 11 10 8 15 9 15 1 0 -6 5 -11 11 -11 5 0 7 5 3 12 -4 7 -3 8 4 4 7
-4 12 -4 12 1 0 4 15 9 33 10 41 2 193 29 232 41 17 5 36 7 43 5 6 -3 12 0 12
6 0 19 20 12 20 -6 1 -14 4 -13 14 6 8 15 16 20 20 12 4 -6 15 -11 24 -10 14
0 13 2 -3 9 -16 6 -9 9 32 15 33 5 50 12 46 18 -4 6 0 8 10 4 26 -10 29 23 6
67 -13 26 -17 42 -10 44 6 2 11 15 11 30 0 18 15 40 51 75 37 36 48 52 40 61
-7 9 -7 16 2 26 10 10 6 12 -20 7 -26 -5 -35 -2 -43 13 -9 17 -7 20 15 26 25
6 32 21 18 40 -5 5 2 -1 15 -13 13 -13 30 -23 39 -23 13 0 13 -3 3 -15 -17
-20 -11 -24 23 -18 19 4 26 10 23 19 -12 31 8 49 54 49 l45 0 -1 75 c-1 41 1
68 4 60 3 -8 11 -21 19 -28 10 -10 12 -27 8 -57 -6 -38 -5 -43 17 -48 12 -4
39 -7 59 -7 32 0 38 4 43 27 4 15 3 29 -4 33 -15 9 0 42 16 36 18 -7 18 -4 -5
96 -26 114 -34 178 -22 178 5 0 12 -19 16 -41 8 -47 42 -91 89 -113 25 -11 31
-20 30 -43 -1 -15 -4 -35 -7 -43 -16 -45 -16 -77 -1 -124 9 -28 20 -55 25 -61
5 -5 9 -15 9 -22 0 -7 12 -32 27 -56 15 -23 26 -46 25 -51 -2 -5 3 -5 10 1 7
6 21 9 31 8 10 -2 14 1 11 7 -11 17 -10 96 1 93 6 -2 22 -6 38 -9 19 -5 27
-13 27 -27 0 -11 7 -27 15 -35 17 -18 20 -34 5 -34 -6 0 -10 -16 -8 -35 1 -23
7 -35 17 -35 11 0 10 -4 -5 -14 -10 -8 -16 -18 -12 -22 4 -4 0 -13 -10 -20
-12 -10 -13 -13 -3 -14 7 0 11 -6 8 -15 -4 -8 -2 -17 4 -21 6 -3 8 -13 5 -21
-4 -9 4 -18 24 -25 17 -5 30 -16 30 -24 0 -8 5 -14 12 -14 9 0 9 -3 1 -11 -9
-9 -7 -16 8 -28 10 -9 20 -28 21 -43 1 -15 6 -24 10 -22 4 3 8 -2 8 -11 0 -9
9 -19 19 -22 27 -7 17 -29 -41 -85 -26 -27 -48 -55 -48 -63 0 -8 -7 -15 -15
-15 -19 0 -65 -50 -65 -72 0 -12 -5 -15 -15 -11 -24 9 -57 -25 -45 -47 5 -10
6 -21 2 -25 -4 -5 -1 -5 6 -1 6 4 12 3 12 -2 0 -5 11 -7 25 -4 14 2 25 2 25
-1 0 -3 -32 -13 -70 -21 -39 -9 -89 -24 -111 -33 -40 -16 -41 -17 -36 -57 9
-68 36 -216 41 -225 3 -4 15 -54 26 -112 12 -57 33 -149 46 -204 61 -245 105
-455 97 -467 -7 -12 15 -9 107 13 101 24 318 59 369 59 35 0 71 -14 61 -23
-10 -10 -257 -67 -287 -67 -18 0 -44 -5 -58 -12 -21 -9 -31 -9 -47 1 -11 7
-17 8 -13 2 4 -7 -8 -11 -34 -11 -22 0 -43 -5 -47 -11 -4 -8 -9 -7 -15 2 -6 9
-9 10 -9 2 0 -6 -8 -12 -17 -11 -10 0 -33 -5 -51 -10 -38 -12 -35 -18 -51 88
-6 41 -43 212 -81 380 -38 168 -81 366 -96 440 -14 74 -29 145 -31 157 -4 17
4 27 33 46 35 22 41 32 57 96 10 39 16 83 13 98 -13 68 -35 381 -28 413 5 24
14 36 27 37 11 2 15 0 8 -3 -22 -10 -3 -31 25 -27 21 4 24 2 12 -6 -12 -9 -11
-11 7 -11 14 0 21 -6 21 -17 -2 -26 23 -155 33 -175 5 -10 9 -34 9 -53 0 -19
3 -35 8 -35 4 0 12 -12 19 -26 11 -24 10 -26 -8 -21 -12 3 -18 3 -15 0 3 -3
-9 -13 -26 -22 -40 -20 -52 -71 -18 -71 14 0 19 -4 14 -12 -10 -17 26 13 104
87 35 33 67 62 73 63 15 6 12 17 -51 173 -33 82 -57 156 -54 164 4 8 -1 26
-10 40 -9 13 -16 33 -16 44 0 29 -29 41 -95 38 -48 -2 -59 -6 -61 -21 -3 -23
-31 -52 -40 -43 -4 4 1 16 11 27 18 20 17 20 -15 20 -24 0 -31 4 -27 14 3 8 1
16 -5 18 -7 3 -12 33 -13 75 0 39 3 69 7 67 4 -3 8 -12 8 -20 0 -8 3 -14 8
-14 10 0 35 41 29 47 -7 6 -127 9 -200 4 -63 -4 -59 -21 4 -21 22 0 47 -9 64
-22 20 -15 30 -18 33 -10 7 23 29 12 30 -15 0 -61 -42 -65 -92 -9 l-33 38 -59
-17 c-32 -9 -67 -23 -78 -31 -18 -13 -11 -14 67 -15 48 -1 92 -3 97 -4 6 -1
12 -3 15 -4 3 0 0 -7 -7 -15 -7 -8 -17 -12 -22 -9 -4 3 -11 1 -15 -4 -3 -6
-17 -14 -31 -18 l-25 -7 25 27 c20 22 21 27 7 22 -10 -4 -35 -7 -55 -7 l-37 0
25 -21 25 -20 -34 16 c-50 25 -121 -1 -121 -45 0 -10 -9 -29 -20 -43 -26 -33
-25 -39 5 -31 21 5 25 3 25 -16 0 -35 29 -51 57 -33 28 19 30 8 4 -15 -15 -13
-21 -34 -25 -86 -2 -38 -1 -64 4 -56 4 7 12 10 17 7 5 -3 6 17 3 47 -7 60 -4
76 13 76 7 0 12 -14 12 -32 0 -26 4 -32 18 -30 12 2 21 -4 24 -17 5 -21 21
-25 60 -15 l21 6 -20 34 c-21 36 -17 44 9 18 9 -8 22 -13 29 -10 7 3 16 1 19
-4 9 -15 25 -12 25 4 0 16 -39 66 -40 50 0 -5 6 -16 13 -23 10 -10 6 -10 -18
0 -16 7 -40 19 -52 27 -12 7 -24 14 -27 14 -21 0 -45 12 -40 20 3 5 13 4 22
-4 13 -11 15 -10 9 4 -10 26 19 48 66 49 23 1 77 3 120 4 42 1 80 -1 83 -6 3
-5 19 4 35 21 17 16 37 30 45 30 22 0 17 -8 -17 -26 -24 -12 -30 -21 -27 -38
4 -17 -6 -34 -35 -62 -31 -31 -36 -33 -22 -11 13 21 14 27 4 27 -8 0 -24 3
-37 6 -21 6 -22 4 -16 -22 l7 -29 -22 19 -21 19 1 -39 c1 -24 3 -30 6 -16 4
19 7 21 19 11 7 -6 11 -15 8 -20 -8 -13 10 -11 24 3 7 7 12 8 12 2 0 -6 -3
-14 -7 -18 -4 -3 -8 -12 -9 -19 -2 -7 -15 -41 -29 -75 -15 -35 -24 -66 -22
-69 3 -2 13 16 22 42 26 65 32 63 24 -9 -4 -34 -6 -71 -4 -82 2 -10 4 -25 4
-31 1 -7 8 -13 16 -13 8 0 15 -9 15 -19 0 -11 4 -22 9 -25 5 -3 11 -14 13 -23
4 -16 -1 -18 -38 -15 -48 4 -57 17 -43 64 12 44 12 51 -5 45 -10 -4 -16 2 -19
16 -3 12 -5 -8 -4 -45 2 -75 -8 -82 -16 -11 -3 29 1 75 10 115 15 61 15 68 -1
83 -9 9 -16 23 -16 31 0 19 -7 18 -43 -8 -17 -12 -27 -16 -22 -9 5 9 3 12 -6
9 -8 -3 -14 -9 -15 -14 -2 -22 -17 -44 -30 -44 -10 0 -13 7 -8 25 3 14 3 25
-1 25 -14 0 -52 -25 -109 -71 -33 -26 -64 -45 -69 -42 -5 3 8 17 28 31 l37 26
-26 9 c-19 6 -30 4 -44 -10 -19 -19 -30 -83 -13 -83 6 0 8 -24 6 -60 -2 -36 0
-58 6 -55 5 4 8 -4 7 -17 -1 -13 2 -34 5 -48 4 -14 -2 -7 -13 15 -10 22 -25
64 -31 94 -11 46 -14 51 -25 36 -10 -13 -9 -29 6 -81 20 -70 16 -80 -15 -34
-11 17 -25 28 -32 26 -6 -3 -14 0 -16 7 -2 7 -10 -1 -18 -16 -10 -22 -10 -38
-2 -68 12 -45 9 -48 -17 -16 -16 19 -19 20 -25 6 -3 -9 0 -33 8 -55 8 -21 18
-48 21 -59 6 -15 2 -14 -16 7 -25 29 -41 26 -52 -10 -6 -19 -10 -21 -22 -11
-12 10 -14 5 -14 -30 0 -23 7 -56 16 -74 l17 -32 -22 20 c-19 16 -24 17 -31 5
-6 -8 -10 -23 -10 -34 0 -11 -5 -16 -13 -13 -13 5 -17 -5 -18 -50 -1 -27 -21
-30 -44 -7 -11 11 -14 25 -10 41 4 16 2 22 -5 18 -19 -12 -10 -61 21 -110 17
-27 25 -45 18 -39 -20 16 -51 26 -44 14 6 -9 -17 -52 -42 -78 -19 -20 -16 -31
22 -73 33 -37 47 -68 25 -54 -5 3 -10 0 -10 -8 0 -7 -11 -24 -24 -36 -13 -12
-26 -36 -30 -52 -3 -17 -10 -28 -16 -24 -5 3 -10 -1 -10 -9 0 -9 -6 -16 -14
-16 -15 0 -28 -28 -31 -64 -1 -10 -9 -24 -18 -31 -10 -7 -17 -19 -17 -27 0
-18 -24 -41 -33 -31 -4 3 -7 -3 -7 -15 0 -12 -8 -23 -19 -27 -34 -11 -31 -32
7 -58 20 -13 41 -24 46 -25 5 0 13 -7 18 -16 5 -9 15 -16 23 -16 12 0 11 -5
-2 -28 -19 -33 -12 -62 17 -69 23 -6 24 -12 5 -36 -16 -23 -8 -50 12 -42 10 3
13 1 10 -9 -4 -9 2 -17 14 -21 11 -4 19 -12 18 -18 -3 -27 14 -55 44 -73 18
-10 35 -19 39 -19 3 0 10 -3 14 -7 4 -4 17 -5 30 -2 17 4 30 -1 47 -20 13 -14
34 -26 46 -26 11 0 20 -6 18 -12 -1 -7 8 -14 21 -16 12 -2 22 0 21 5 -3 19 2
23 15 11 10 -9 11 -17 4 -26 -14 -16 -5 -24 26 -24 19 0 26 -6 28 -27 3 -22 9
-27 43 -33 59 -9 112 -32 108 -45 -2 -6 1 -15 8 -19 8 -4 9 -3 5 4 -4 7 -1 12
7 12 8 0 18 -7 21 -17 6 -14 12 -11 41 17 19 19 35 42 35 51 0 17 2 17 -168
35 -51 5 -93 32 -86 55 3 10 -5 20 -22 28 -16 7 -24 17 -21 25 4 10 -1 13 -19
11 -27 -3 -30 4 -11 24 10 11 8 13 -12 8 -19 -5 -25 0 -34 24 -7 16 -17 27
-23 25 -7 -3 -20 4 -30 15 -17 18 -17 20 2 35 10 8 13 13 6 9 -18 -9 -56 5
-45 16 11 11 156 -37 161 -52 2 -5 8 -7 13 -3 5 3 9 0 9 -6 0 -6 5 -8 10 -5 6
4 22 -1 36 -10 13 -9 28 -14 33 -11 4 3 18 -4 29 -15 12 -11 22 -15 22 -10 0
9 53 -7 90 -28 9 -5 30 -12 48 -16 24 -5 33 -3 38 9 8 20 -20 48 -39 40 -8 -3
-32 2 -53 11 -28 11 -35 18 -26 27 8 8 16 8 29 -2 17 -13 17 -13 1 5 -14 15
-20 16 -32 6 -14 -12 -75 1 -141 29 -11 5 -50 19 -88 31 -37 13 -63 26 -57 29
5 3 -5 6 -23 6 -17 0 -52 9 -75 20 l-44 19 34 46 c18 26 73 96 121 155 49 60
108 139 133 177 25 37 49 67 54 67 12 0 80 68 80 80 0 5 4 10 9 10 5 0 12 -21
16 -47 16 -106 76 -225 170 -338 23 -27 47 -66 54 -85 6 -19 21 -51 33 -70 25
-40 34 -80 18 -80 -12 0 21 -63 72 -136 19 -27 40 -62 48 -78 8 -15 30 -44 50
-63 33 -33 33 -34 5 -17 -28 18 -29 18 -22 0 6 -16 4 -18 -20 -12 -16 4 -42 7
-59 6 -28 0 -31 3 -51 62 -12 35 -25 79 -28 98 -22 131 -62 270 -76 270 -11 0
-11 -132 0 -185 5 -22 12 -59 15 -83 5 -39 4 -42 -19 -42 -50 0 -80 -94 -62
-195 6 -30 8 -57 5 -61 -3 -3 -18 -6 -32 -8 -41 -4 -50 -21 -52 -97 0 -38 -6
-75 -12 -81 -9 -9 -28 -8 -79 5 -63 15 -69 15 -78 0 -5 -9 -18 -25 -28 -35
-22 -23 -16 -33 31 -58 20 -11 57 -38 82 -60 25 -23 57 -48 72 -56 47 -25 58
-74 17 -74 -11 0 -17 -5 -14 -10 3 -5 -1 -10 -9 -10 -19 0 -22 -40 -4 -58 9
-9 7 -12 -13 -13 -23 -1 -23 -1 4 -9 16 -5 34 -13 41 -19 7 -6 16 -8 19 -4 4
3 7 -1 7 -10 0 -14 10 -17 53 -17 30 0 62 -6 73 -14 12 -8 44 -17 73 -20 46
-4 85 -16 53 -16 -6 0 -9 -7 -6 -15 4 -9 0 -15 -8 -15 -27 0 -68 -25 -65 -40
1 -8 -5 -14 -15 -14 -10 1 -33 2 -52 3 -28 1 -37 7 -48 31 -8 19 -20 30 -33
30 -17 0 -18 2 -5 11 13 9 13 10 0 6 -8 -2 -16 -18 -18 -35 -4 -39 -15 -40
-54 -7 -45 38 -47 21 -3 -20 34 -31 36 -35 17 -35 -12 0 -27 9 -34 20 -7 11
-20 20 -28 20 -19 0 -40 19 -40 36 0 7 -20 47 -45 88 -25 42 -45 83 -45 91 0
8 -4 15 -10 15 -15 0 -42 60 -37 81 3 11 -8 29 -32 51 -20 18 -48 47 -62 63
-14 17 -47 42 -75 57 -27 15 -48 32 -46 38 1 7 -2 9 -7 5 -6 -3 -19 2 -30 12
-30 27 -45 38 -61 41 -8 2 -24 12 -36 23 -11 10 -25 19 -32 19 -13 0 -72 33
-127 73 -22 15 -52 36 -67 45 -16 9 -28 20 -28 25 0 4 -9 7 -20 7 -25 0 -26
-17 -2 -23 12 -4 11 -5 -6 -6 -25 -1 -38 20 -28 46 5 12 9 14 18 5 20 -20 32
-13 13 8 -15 17 -19 17 -32 4 -11 -10 -19 -12 -28 -4 -10 8 -14 -10 -19 -83
-7 -97 -6 -105 25 -174 10 -24 19 -50 19 -58 0 -8 7 -15 15 -15 8 0 15 -4 15
-10 0 -5 -4 -10 -10 -10 -5 0 -10 -11 -10 -25 0 -16 -6 -25 -15 -25 -8 0 -15
-7 -15 -16 0 -8 -5 -12 -10 -9 -6 3 -10 0 -10 -7 0 -9 -3 -9 -10 2 -6 10 -10
11 -10 3 0 -7 -6 -13 -14 -13 -12 0 -33 -47 -24 -55 2 -1 22 -12 45 -24 32
-16 41 -25 36 -38 -4 -10 -2 -14 5 -9 6 3 13 -2 15 -11 2 -10 3 -6 1 10 -3 19
1 27 12 27 12 0 14 -7 9 -30 -6 -26 -4 -30 14 -30 27 0 31 -50 4 -51 -15 0
-15 -2 2 -9 16 -7 17 -9 3 -9 -9 -1 -19 3 -23 8 -7 12 -44 10 -42 -2 1 -5 -4
-12 -12 -15 -9 -3 -11 0 -6 8 5 8 3 11 -6 8 -8 -3 -15 -22 -17 -46 -2 -30 -8
-42 -19 -42 -9 0 -21 -7 -27 -15 -9 -13 -11 -11 -12 10 -2 21 2 25 17 20 11
-4 19 -2 19 4 0 6 -6 11 -14 11 -9 0 -12 9 -8 27 2 16 2 25 -2 22 -4 -4 -9
-17 -11 -29 -2 -13 -11 -30 -20 -40 -8 -9 -15 -27 -15 -39 0 -12 -4 -20 -9
-17 -8 5 -21 -15 -20 -30 0 -4 -5 -11 -13 -16 -10 -8 -10 -11 0 -15 6 -2 10
-8 7 -13 -7 -12 -2 -12 503 -16 l462 -4 0 35 c0 19 4 35 9 35 13 0 19 -48 8
-59 -8 -8 12 -11 67 -11 69 0 78 2 83 20 7 26 29 26 36 0 4 -17 13 -20 64 -19
l58 1 -55 13 c-30 7 -56 18 -58 24 -2 6 -10 11 -18 11 -8 0 -14 5 -14 11 0 5
4 8 8 5 8 -5 165 -20 197 -18 11 1 63 3 115 6 52 2 89 2 82 -1 -6 -2 -9 -10
-5 -16 4 -6 0 -8 -10 -4 -11 4 -14 2 -11 -8 4 -8 -3 -15 -18 -18 -13 -2 156
-5 374 -6 309 -1 397 2 401 12 4 9 6 9 6 0 1 -18 117 -18 124 0 4 9 6 9 6 0 1
-17 28 -17 34 0 4 9 6 9 6 0 1 -17 28 -17 34 0 4 9 6 9 6 0 1 -18 127 -18 134
0 4 9 6 9 6 0 1 -10 96 -13 441 -13 l440 0 0 1150 c0 1143 0 1150 -20 1150
-11 0 -20 6 -20 13 0 6 -11 36 -25 64 -26 58 -20 72 22 49 28 -15 28 -16 6
-22 -33 -9 -28 -21 7 -16 25 4 30 9 30 32 0 32 -12 39 -55 33 -37 -6 -39 -3
-85 97 -19 41 -43 87 -52 102 -20 29 -21 88 -2 88 6 0 14 -9 17 -20 3 -11 0
-18 -7 -17 -6 1 -11 -4 -11 -12 0 -21 73 -42 135 -39 l55 3 3 73 3 72 -35 0
c-32 0 -36 3 -40 33 -12 74 -12 81 9 85 68 10 64 5 64 99 0 57 -4 90 -12 95
-9 6 -9 8 1 8 6 0 12 7 12 16 0 12 -9 15 -37 14 -80 -4 -93 -1 -93 20 0 16 7
20 34 20 51 0 96 11 96 24 0 12 -165 14 -177 2 -3 -3 -2 -6 4 -6 6 0 13 -19
17 -42 4 -23 11 -47 15 -53 5 -5 11 -37 15 -70 4 -33 9 -73 11 -90 3 -16 8
-59 11 -95 l6 -65 -30 34 c-17 20 -34 31 -41 27 -6 -4 -9 -11 -6 -16 11 -17
-22 -31 -49 -20 -16 6 -25 6 -21 0 5 -7 -23 -30 -38 -30 -3 0 -22 21 -42 46
-27 33 -34 48 -26 54 7 4 15 26 18 48 6 42 -4 61 -39 75 -11 4 -18 20 -21 49
l-4 43 -1 -48 c-2 -44 -4 -48 -24 -45 -21 3 -24 -2 -28 -47 -4 -38 -9 -49 -20
-46 -8 2 -46 11 -85 18 -38 8 -81 17 -95 20 -14 3 -19 8 -12 10 6 3 10 9 6 14
-3 5 6 34 20 64 45 94 49 107 29 103 -10 -2 -19 -13 -21 -25 -2 -12 -10 -27
-18 -33 -8 -7 -14 -21 -14 -31 0 -15 -7 -19 -31 -19 -28 0 -31 -3 -26 -26 5
-30 -12 -41 -41 -25 -13 7 -22 7 -30 -1 -8 -8 -22 -5 -52 11 -22 11 -56 21
-74 21 -33 0 -33 1 -31 43 1 23 0 29 -2 12 l-5 -30 -13 30 c-9 20 -14 24 -14
12 -1 -10 3 -26 9 -36 8 -17 6 -18 -33 -10 -134 26 -234 89 -141 89 30 0 34 2
25 14 -9 11 -9 15 0 18 17 6 3 25 -31 43 -25 13 -29 13 -34 -1 -3 -8 -2 -13 2
-10 5 3 9 0 9 -7 0 -7 -11 -13 -24 -13 -17 -2 -23 2 -19 12 3 8 -1 14 -10 14
-8 0 -30 11 -49 25 -49 38 -38 62 28 67 73 6 88 0 85 -30 -2 -14 3 -27 10 -29
7 -3 12 3 12 14 0 44 81 84 123 61 12 -7 25 -11 30 -10 4 1 7 -5 7 -13 0 -8 5
-15 10 -15 6 0 11 35 12 83 1 45 3 102 4 126 l2 44 -52 -7 c-28 -3 -60 -6 -72
-6 -34 0 -65 -37 -62 -75 1 -19 -2 -38 -6 -42 -5 -4 -6 18 -4 50 3 31 1 57 -4
57 -4 0 -8 -8 -9 -17 0 -10 -3 -13 -5 -7 -3 6 0 23 5 37 10 25 14 26 97 29 64
2 89 7 92 17 4 11 -4 13 -42 8 -25 -4 -66 -10 -91 -13 l-45 -7 15 43 c8 23 15
64 15 90 0 40 4 49 26 60 41 22 67 65 54 89 -13 25 -13 54 0 46 6 -3 10 -2 10
4 0 5 -9 9 -20 8 -11 -1 -20 -5 -20 -10 0 -5 -9 -5 -20 -2 -14 4 -20 2 -20 -9
0 -8 -5 -18 -11 -22 -8 -4 -9 0 -4 15 4 12 2 21 -4 21 -6 0 -11 -5 -11 -12 0
-8 -5 -7 -15 3 -11 11 -17 45 -21 122 -3 58 -7 115 -9 125 -7 40 -58 123 -93
152 -21 16 -45 36 -54 45 -10 8 -22 15 -28 15 -5 0 -14 9 -20 20 -6 11 -31 30
-56 42 -31 14 -42 23 -32 28 10 6 277 71 351 86 10 2 28 5 40 8 14 3 13 1 -5
-6 -23 -10 -37 -31 -42 -63 0 -5 -9 -10 -18 -10 -10 0 -23 -6 -30 -13 -9 -9
-9 -12 0 -12 7 0 12 -7 12 -16 0 -14 3 -14 15 -4 10 9 15 9 15 1 0 -6 5 -11
10 -11 6 0 10 7 10 15 0 7 8 18 17 24 12 6 14 13 7 23 -21 27 -10 43 29 43 28
1 36 -3 32 -13 -3 -7 -5 -18 -5 -24 0 -6 -7 -5 -17 3 -15 12 -16 12 -10 -3 3
-10 1 -23 -6 -30 -7 -7 -19 -21 -26 -31 -13 -16 -13 -19 0 -17 29 5 38 0 36
-20 -1 -17 -6 -20 -30 -14 -19 4 -27 2 -23 -4 3 -5 -2 -13 -12 -17 -16 -6 -16
-7 1 -16 9 -6 15 -14 12 -20 -4 -5 -2 -9 4 -9 5 0 12 8 15 18 3 9 4 3 3 -14
-3 -32 16 -60 33 -49 6 4 5 14 -4 27 -19 27 -10 48 21 48 23 0 24 2 12 17 -12
15 -12 16 6 9 16 -6 18 -5 8 5 -19 19 -16 26 16 42 19 9 33 11 39 5 12 -12 3
-50 -9 -42 -5 3 -9 -4 -9 -15 0 -12 -4 -21 -10 -21 -5 0 -10 -4 -10 -10 0 -5
7 -7 16 -3 17 6 17 -6 -2 -64 -3 -10 -2 -14 3 -7 11 15 43 25 43 15 0 -5 -6
-12 -12 -14 -7 -3 10 -6 39 -6 l52 -1 3 -56 3 -56 50 -20 c34 -13 51 -16 53
-8 2 6 15 23 28 38 l24 27 20 -25 21 -25 -3 153 c-3 129 -1 152 12 153 8 0 4
4 -8 10 -13 5 -29 6 -35 2 -6 -4 -8 0 -4 10 3 9 2 16 -3 14 -5 -1 -15 5 -22
14 -7 9 -25 19 -40 23 -24 6 -28 3 -37 -26 -5 -18 -10 -25 -10 -15 -2 28 -3
31 -20 45 -14 11 -13 12 9 7 19 -5 22 -4 10 4 -21 15 -50 14 -50 -1 1 -7 7
-24 15 -38 18 -31 19 -43 3 -38 -7 3 -14 13 -15 24 -5 45 -17 80 -31 97 -20
23 -15 22 44 -8 27 -14 54 -25 61 -25 6 0 28 -9 47 -21 19 -11 40 -18 46 -14
7 4 14 -2 17 -14 3 -12 12 -21 20 -21 8 0 11 5 8 10 -3 6 -2 10 3 10 16 0 20
-49 6 -76 -12 -23 -12 -26 5 -31 13 -3 18 -10 14 -21 -4 -10 -2 -13 5 -8 15 9
15 5 2 -29 -6 -15 -7 -32 -3 -38 11 -17 13 -32 20 -124 3 -46 9 -83 12 -83 3
0 6 62 6 138 0 111 2 136 12 123 10 -14 12 -11 13 19 0 35 1 36 37 32 34 -4
35 -6 18 -18 -14 -10 -15 -14 -4 -14 10 -1 9 -3 -4 -11 -15 -9 -15 -12 -3 -25
8 -8 19 -14 24 -14 5 0 10 -6 9 -12 -1 -45 4 -88 12 -88 13 0 24 54 12 58 -14
5 -14 32 -1 32 6 0 10 -6 10 -12 0 -10 2 -10 9 0 16 26 21 -18 22 -206 1 -103
5 -277 9 -387 5 -165 7 -182 10 -100 l4 100 3 -80 c4 -78 20 -114 35 -77 5 12
7 10 7 -10 1 -16 6 -28 11 -28 8 0 10 146 10 463 -2 636 -1 719 9 713 4 -3 3
15 -2 40 l-11 45 -48 -2 -48 -3 0 -163 c0 -107 -3 -162 -10 -158 -5 3 -10 29
-10 56 0 28 -4 48 -9 45 -5 -3 -7 -15 -4 -26 3 -11 0 -20 -6 -20 -6 0 -11 6
-12 13 0 6 -4 3 -8 -7 -5 -13 -1 -26 12 -39 10 -10 17 -21 14 -23 -3 -3 -36 5
-73 18 l-69 24 -1 59 c-2 79 37 155 79 155 14 0 27 28 27 58 0 10 -45 12 -209
12 -186 -1 -208 -3 -207 -18 1 -12 -20 -22 -79 -39 -89 -25 -115 -28 -115 -13
0 6 -10 10 -22 11 -27 1 38 23 127 43 l60 14 -68 1 c-40 1 -82 -5 -104 -14
-38 -16 -73 -19 -112 -8 -23 6 -23 7 -5 14 10 4 -33 8 -96 8 -63 -1 -109 -3
-102 -6 35 -14 -21 -38 -81 -34 -16 1 -26 -2 -24 -6 3 -5 -11 -9 -31 -10 -20
-1 -38 -7 -40 -12 -2 -6 -15 -11 -28 -11 -14 0 -35 -5 -46 -11 -39 -21 -79
-22 -94 -2 -7 10 -13 14 -13 8 0 -5 6 -19 14 -29 19 -25 19 -36 0 -36 -8 0
-15 7 -15 15 0 8 -4 15 -10 15 -5 0 -10 9 -10 19 0 10 -7 21 -15 25 -8 3 -23
21 -32 41 -20 41 -24 42 -152 15 -110 -23 -101 -23 -101 -10 0 6 8 10 18 10
41 1 -12 17 -59 19 l-51 1 20 -27z m311 -17 l23 -24 -41 -7 c-22 -4 -45 -4
-50 -1 -5 3 -20 2 -33 -3 -26 -9 -130 -24 -109 -15 10 5 10 8 1 14 -7 4 24 17
72 29 45 12 88 24 93 26 18 6 21 5 44 -19z m565 -2 c9 -3 16 -10 16 -16 0 -5
-5 -6 -10 -3 -6 4 -16 2 -23 -3 -7 -5 -41 -16 -77 -25 -36 -8 -121 -29 -188
-47 -119 -30 -124 -31 -137 -13 -17 23 -19 22 160 63 77 17 151 35 165 40 31
10 73 12 94 4z m396 -23 c0 -19 -34 -32 -88 -33 -43 0 -44 19 -1 27 19 4 64
16 87 24 1 1 2 -7 2 -18z m-287 -32 c-5 -5 -23 -12 -41 -15 -25 -5 -32 -3 -32
9 0 8 5 17 12 19 20 7 70 -4 61 -13z m577 -16 c0 -7 -4 -13 -10 -13 -5 0 -10
12 -10 28 0 21 2 24 10 12 5 -8 10 -21 10 -27z m-1214 12 c13 -12 12 -15 -5
-25 -11 -5 -32 -10 -48 -10 -15 0 -43 -4 -61 -9 -22 -7 -30 -6 -26 0 4 7 -7 9
-30 5 -58 -9 -41 10 22 24 31 7 71 16 87 20 43 12 45 11 61 -5z m914 -15 c-8
-5 -26 -9 -40 -9 l-25 1 25 8 c14 4 32 8 40 9 13 1 13 0 0 -9z m-555 -21 c-33
-11 -80 -22 -105 -24 -34 -4 -25 1 40 19 103 28 149 32 65 5z m135 12 c0 -5
-7 -12 -16 -15 -14 -5 -15 -4 -4 9 14 17 20 19 20 6z m40 -1 c-8 -5 -19 -10
-25 -10 -5 0 -3 5 5 10 8 5 20 10 25 10 6 0 3 -5 -5 -10z m193 -10 c-11 -10
-99 -23 -89 -13 13 13 70 30 84 25 7 -2 10 -8 5 -12z m-303 -10 c-8 -5 -37
-14 -65 -21 -66 -15 -89 -28 -55 -30 14 -1 37 0 53 1 40 2 33 -17 -9 -25 -25
-4 -39 -2 -44 6 -5 7 -18 9 -36 5 -28 -7 -28 -7 -9 8 l20 15 -20 1 c-11 1 21
12 70 25 104 26 116 28 95 15z m561 -7 c1 -16 2 -16 6 -1 2 9 12 16 22 15 15
-1 16 -5 8 -28 l-11 -27 -42 21 c-32 17 -38 24 -25 29 28 12 41 9 42 -9z m449
-90 c0 -63 -4 -102 -9 -95 -4 8 -7 23 -6 35 1 12 3 55 4 95 0 39 3 72 6 72 3
0 5 -48 5 -107z m-520 77 c0 -5 -7 -10 -15 -10 -8 0 -15 5 -15 10 0 6 7 10 15
10 8 0 15 -4 15 -10z m-47 -14 c12 -9 15 -20 10 -32 -6 -17 -8 -16 -13 6 -3
15 -15 27 -30 31 -20 6 -21 7 -5 8 11 0 28 -6 38 -13z m-755 -19 c2 -10 -3
-17 -12 -17 -10 0 -16 9 -16 21 0 24 23 21 28 -4z m309 -3 c-3 -3 -12 -4 -19
-1 -8 3 -5 6 6 6 11 1 17 -2 13 -5z m523 -16 c0 -21 -13 -30 -34 -22 -27 10
-20 42 9 40 16 0 25 -7 25 -18z m230 2 c0 -10 -26 -20 -33 -13 -3 3 -3 11 0
18 5 14 33 9 33 -5z m-900 -20 c-13 -9 -8 -14 12 -12 3 1 12 -5 18 -13 18 -21
-13 -20 -34 1 -21 20 -20 34 2 34 14 0 15 -2 2 -10z m627 -55 c-14 -29 -37
-33 -37 -6 0 17 11 24 42 30 3 0 1 -10 -5 -24z m58 -45 c-6 -9 8 -14 28 -11 4
0 7 -3 7 -8 0 -5 -11 -8 -24 -8 -26 0 -40 26 -29 54 5 13 7 13 15 -1 5 -9 6
-21 3 -26z m502 3 c-3 -10 -5 -4 -5 12 0 17 2 24 5 18 2 -7 2 -21 0 -30z m20
-40 c-2 -16 -4 -3 -4 27 0 30 2 43 4 28 2 -16 2 -40 0 -55z m-447 48 c0 -5 -7
-11 -14 -14 -10 -4 -13 -1 -9 9 6 15 23 19 23 5z m90 -1 c0 -5 -5 -10 -11 -10
-5 0 -7 5 -4 10 3 6 8 10 11 10 2 0 4 -4 4 -10z m360 -108 c0 -15 -2 -15 -10
-2 -13 20 -13 33 0 25 6 -3 10 -14 10 -23z m-50 -6 c0 -3 -4 -8 -10 -11 -5 -3
-10 -1 -10 4 0 6 5 11 10 11 6 0 10 -2 10 -4z m-1583 -63 c-3 -10 -5 -4 -5 12
0 17 2 24 5 18 2 -7 2 -21 0 -30z m1631 -86 c-1 -62 -3 -91 -5 -64 -2 26 -9
47 -15 47 -6 0 -8 -10 -4 -25 4 -14 2 -25 -4 -25 -15 0 -13 177 3 183 24 9 27
-5 25 -116z m-51 61 c-3 -8 -6 -5 -6 6 -1 11 2 17 5 13 3 -3 4 -12 1 -19z
m-1562 -18 c3 -5 2 -10 -4 -10 -5 0 -13 5 -16 10 -3 6 -2 10 4 10 5 0 13 -4
16 -10z m1582 -252 c-2 -18 -4 -6 -4 27 0 33 2 48 4 33 2 -15 2 -42 0 -60z
m-697 -87 c10 -21 4 -51 -11 -51 -13 0 -11 18 3 22 7 3 8 10 4 17 -7 11 -10
11 -17 0 -6 -10 -9 -8 -9 9 0 27 16 29 30 3z m-1015 -1 c-6 -10 -70 -40 -86
-40 -16 0 4 32 25 40 30 12 68 12 61 0z m1718 -5 c-3 -9 -8 -14 -10 -11 -3 3
-2 9 2 15 9 16 15 13 8 -4z m-1740 -89 c3 -7 0 -19 -6 -25 -16 -16 0 -26 18
-11 12 10 15 10 15 -3 0 -8 -6 -20 -14 -26 -10 -9 -13 -23 -9 -49 l6 -37 -24
16 c-13 9 -32 37 -41 61 -16 44 -16 46 3 67 23 24 44 27 52 7z m265 -133 c0
-54 2 -106 7 -116 4 -10 6 -20 3 -22 -7 -8 -58 10 -57 20 0 6 -10 12 -23 15
-30 8 -34 33 -9 57 11 10 27 41 36 68 16 45 32 75 41 75 2 0 3 -44 2 -97z
m-501 35 c18 -2 20 -5 11 -21 -7 -13 -17 -18 -34 -14 -14 2 -27 0 -30 -5 -8
-12 -44 21 -44 40 0 11 8 13 38 8 20 -3 47 -7 59 -8z m-162 -78 c3 -5 1 -10
-5 -10 -6 0 -9 -4 -5 -10 7 -12 -28 -47 -43 -42 -7 2 -6 14 6 37 17 34 35 44
47 25z m155 -8 c0 -5 -7 -9 -15 -9 -8 0 -12 4 -9 9 3 4 9 8 15 8 5 0 9 -4 9
-8z m79 -11 c11 -1 11 -4 1 -16 -17 -20 -37 -19 -49 4 -9 15 -7 18 12 16 12
-1 28 -3 36 -4z m-189 -32 c0 -5 -7 -9 -15 -9 -15 0 -20 12 -9 23 8 8 24 -1
24 -14z m-45 -25 c10 -14 15 -14 34 -4 13 6 26 9 29 5 8 -8 -28 -36 -38 -30
-4 2 -13 -8 -21 -22 -11 -21 -11 -27 -1 -30 20 -7 14 -33 -8 -33 -16 0 -20 7
-20 35 0 19 -4 35 -9 35 -5 0 -4 14 2 30 13 35 16 36 32 14z m1443 -19 c3 -2
12 1 20 8 13 10 15 8 9 -13 -4 -14 -7 -30 -7 -37 0 -6 -9 -11 -20 -10 -15 1
-18 6 -14 20 5 16 3 17 -14 8 -12 -6 -23 -11 -26 -11 -8 0 -8 35 0 43 6 6 43
1 52 -8z m-122 -61 c0 -22 4 -47 8 -55 4 -8 1 -6 -7 4 -12 14 -26 17 -66 14
-28 -1 -51 1 -51 5 0 8 35 12 76 9 27 -3 41 29 20 45 -21 15 -20 26 2 22 13
-2 17 -14 18 -44z m-72 21 c22 -17 21 -20 -15 -28 -24 -6 -26 -4 -21 18 5 29
10 30 36 10z m-654 -46 c0 -5 -7 -6 -15 -3 -10 4 -15 0 -15 -11 0 -12 -5 -15
-16 -11 -9 3 -20 6 -25 6 -5 0 -9 4 -9 10 0 5 10 9 23 7 12 -1 21 3 20 9 -1 7
6 10 17 7 11 -3 20 -9 20 -14z m757 -66 c-2 -16 -4 -3 -4 27 0 30 2 43 4 28 2
-16 2 -40 0 -55z m66 50 c-4 -11 -8 -13 -11 -5 -2 7 -13 12 -25 13 -20 1 -20
2 3 8 31 10 41 5 33 -16z m62 17 c4 -6 -6 -10 -22 -9 -25 0 -26 1 -8 9 11 5
21 9 22 9 1 1 5 -3 8 -9z m-2670 -30 c8 -13 -5 -13 -25 0 -13 8 -13 10 2 10 9
0 20 -4 23 -10z m2650 -8 c-3 -3 -11 0 -18 7 -9 10 -8 11 6 5 10 -3 15 -9 12
-12z m-845 -14 c0 -10 2 -10 9 0 4 8 19 11 34 8 41 -7 50 -16 31 -30 -23 -17
-88 -6 -92 17 -2 9 1 17 7 17 6 0 11 -6 11 -12z m-1052 -23 c1 -16 -5 -28 -18
-35 -17 -9 -20 -8 -20 11 0 12 8 28 18 35 9 7 17 14 17 14 0 0 2 -11 3 -25z
m1180 16 c10 -6 9 -10 -7 -14 -14 -3 -21 0 -21 9 0 16 9 18 28 5z m-938 -43
c0 -26 5 -41 16 -45 13 -5 13 -7 2 -14 -8 -5 -13 -28 -13 -64 0 -84 -12 -65
-17 26 -2 64 -7 84 -22 94 -10 8 -24 11 -32 8 -15 -6 -17 -2 -8 20 3 10 18 15
40 14 33 -1 34 -2 34 -39z m-157 -15 c-3 -8 3 -13 16 -13 20 0 21 -5 21 -84 0
-46 3 -91 6 -100 4 -11 1 -16 -10 -16 -12 0 -16 10 -16 39 0 21 -7 58 -15 82
-27 74 -34 116 -21 129 8 8 12 6 17 -7 3 -10 4 -24 2 -30z m47 23 c0 -3 -4 -8
-10 -11 -5 -3 -10 -1 -10 4 0 6 5 11 10 11 6 0 10 -2 10 -4z m200 -38 c0 -36
-4 -35 -14 5 -4 16 -2 27 4 27 5 0 10 -14 10 -32z m-680 -29 c0 -15 5 -31 10
-34 6 -3 10 4 10 18 0 13 6 24 13 25 6 1 27 5 45 8 19 4 32 2 32 -4 0 -6 12
-12 26 -14 32 -4 53 -56 53 -135 0 -43 -3 -53 -15 -49 -9 4 -14 -2 -14 -15 0
-15 -4 -19 -16 -15 -9 4 -23 1 -30 -5 -14 -11 -16 -5 -17 56 -1 13 -37 48 -37
35 0 -5 -4 -10 -9 -10 -5 0 -7 9 -4 20 3 11 0 20 -6 20 -6 0 -11 6 -11 14 0 8
-9 18 -20 21 -16 5 -20 15 -20 51 0 24 -4 44 -10 44 -5 0 -10 5 -10 11 0 8 5
8 15 -1 8 -7 15 -25 15 -41z m503 19 c3 -13 9 -33 12 -45 5 -17 3 -23 -8 -23
-11 0 -16 13 -19 45 -3 47 6 61 15 23z m-1750 5 c3 -5 8 -38 12 -75 l6 -67
-28 4 c-15 2 -35 4 -43 4 -10 1 -11 4 -4 9 6 4 13 15 17 25 5 14 1 17 -24 17
-26 0 -29 2 -19 19 5 11 10 31 10 45 0 23 4 26 34 26 19 0 37 -3 39 -7z m863
-28 c-7 -18 -37 -20 -33 -3 3 18 31 39 35 27 2 -5 1 -16 -2 -24z m737 18 c36
23 45 21 19 -3 -25 -23 -30 -39 -7 -20 23 19 30 4 15 -27 -7 -16 -12 -32 -11
-38 8 -32 10 -98 2 -86 -7 11 -10 9 -16 -8 -10 -32 -35 -26 -35 8 0 17 -4 33
-10 36 -13 8 -13 62 -1 69 10 7 8 39 -4 71 -8 20 -7 20 7 1 15 -19 17 -19 41
-3z m64 -115 c-3 -8 -6 -5 -6 6 -1 11 2 17 5 13 3 -3 4 -12 1 -19z m620 16
c-3 -3 -12 -4 -19 -1 -8 3 -5 6 6 6 11 1 17 -2 13 -5z m2202 -20 c2 -2 -16 -4
-40 -4 -31 0 -40 3 -29 10 13 8 57 4 69 -6z m-3223 -59 c-3 -8 -10 -15 -16
-15 -11 0 -14 63 -3 74 10 10 26 -41 19 -59z m634 39 c0 -8 -4 -12 -10 -9 -5
3 -10 10 -10 16 0 5 5 9 10 9 6 0 10 -7 10 -16z m-630 -67 c29 -6 30 -8 15
-23 -9 -9 -14 -23 -11 -30 3 -8 0 -11 -10 -7 -9 3 -14 -1 -14 -13 0 -41 -18 5
-24 61 -4 40 -3 53 3 39 6 -12 22 -24 41 -27z m1285 33 c3 -5 1 -10 -4 -10 -6
0 -11 5 -11 10 0 6 2 10 4 10 3 0 8 -4 11 -10z m-995 -15 c0 -8 -4 -15 -10
-15 -5 0 -10 7 -10 15 0 8 5 15 10 15 6 0 10 -7 10 -15z m2950 -25 c0 -5 -4
-10 -10 -10 -5 0 -10 5 -10 10 0 6 5 10 10 10 6 0 10 -4 10 -10z m-3140 -50
c0 -5 -5 -10 -11 -10 -5 0 -7 5 -4 10 3 6 8 10 11 10 2 0 4 -4 4 -10z m-1443
-6 c-3 -3 -12 -4 -19 -1 -8 3 -5 6 6 6 11 1 17 -2 13 -5z m353 -116 c0 -16 -3
-19 -11 -11 -6 6 -8 16 -5 22 11 17 16 13 16 -11z m1097 16 c-3 -3 -12 -4 -19
-1 -8 3 -5 6 6 6 11 1 17 -2 13 -5z m-198 -111 c1 -38 5 -53 12 -53 4 0 10 8
12 18 4 15 5 15 6 0 1 -24 -8 -27 -86 -33 l-69 -5 -16 35 c-8 19 -12 38 -7 41
5 3 9 0 9 -6 0 -6 4 -9 9 -6 4 3 6 -5 4 -18 -3 -13 1 -27 8 -31 9 -6 11 -3 6
8 -11 30 2 44 34 39 20 -3 34 0 40 9 6 10 9 6 9 -13 0 -15 5 -30 11 -34 9 -5
10 1 5 20 -4 15 -4 31 -1 36 9 15 14 12 14 -7z m801 -4 c-7 -11 -14 -18 -17
-15 -3 3 0 12 7 21 18 21 23 19 10 -6z m-733 -11 c-3 -8 -6 -5 -6 6 -1 11 2
17 5 13 3 -3 4 -12 1 -19z m782 -23 c0 -5 -4 -3 -9 5 -5 8 -9 22 -9 30 0 16
17 -16 18 -35z m1227 -56 c-29 -18 -130 -39 -116 -25 16 16 70 34 105 35 26 0
28 -1 11 -10z m-2318 -13 c-7 -8 -15 -12 -17 -11 -5 6 10 25 20 25 5 0 4 -6
-3 -14z m26 -10 c-4 -10 3 -13 23 -11 18 1 39 -6 54 -18 l24 -20 -25 7 c-14 5
-33 8 -42 9 -10 1 -18 5 -18 10 0 5 -7 4 -15 -3 -12 -10 -15 -10 -15 1 0 11
-2 11 -10 -1 -6 -9 -10 -10 -10 -3 0 11 26 43 35 43 3 0 2 -6 -1 -14z m143
-18 c-3 -7 -5 -2 -5 12 0 14 2 19 5 13 2 -7 2 -19 0 -25z m79 -15 c-7 -7 -26
7 -26 19 0 6 6 6 15 -2 9 -7 13 -15 11 -17z m-72 -37 c-1 -9 -2 -22 -3 -28 -1
-15 -151 -12 -151 2 0 5 8 7 18 4 14 -5 15 -4 2 5 -13 10 -13 12 0 21 8 5 10
10 5 10 -6 0 -16 -5 -23 -12 -7 -7 -12 -8 -12 -2 0 19 9 20 87 18 65 -2 78 -5
77 -18z m1754 -28 c-22 -16 -24 -16 -42 1 -27 27 -13 40 29 27 l35 -11 -22
-17z m305 -25 c-7 -2 -21 -2 -30 0 -10 3 -4 5 12 5 17 0 24 -2 18 -5z m-377
-65 c-9 -5 -16 -17 -16 -27 0 -21 -17 -37 -43 -42 -12 -3 -24 -20 -33 -44 -7
-22 -18 -41 -24 -43 -5 -2 -10 -12 -10 -21 0 -24 -11 -33 -25 -21 -19 16 -51
-56 -34 -76 17 -21 3 -29 -26 -16 -27 13 -40 49 -31 87 8 31 172 194 203 201
13 4 20 11 16 17 -3 5 -1 7 5 3 6 -3 14 -1 18 6 6 9 9 9 12 -1 3 -8 -3 -18
-12 -23z m254 20 c0 -18 -45 -69 -54 -61 -3 3 -6 1 -6 -6 0 -7 -4 -10 -9 -7
-5 3 -12 -1 -15 -10 -3 -8 -10 -12 -16 -9 -16 10 -12 -32 5 -49 8 -8 15 -23
14 -33 0 -16 -1 -16 -8 2 -7 18 -8 17 -14 -7 -5 -19 -15 -27 -36 -30 -19 -3
-27 0 -24 8 2 6 -5 14 -16 17 -36 9 -24 42 39 102 87 85 140 116 140 83z
m-1663 -124 c-3 -3 -12 -4 -19 -1 -8 3 -5 6 6 6 11 1 17 -2 13 -5z m-60 -29
c0 -8 -4 -12 -9 -9 -5 3 -6 10 -3 15 9 13 12 11 12 -6z m1519 -77 c-5 -52 -15
-80 -27 -72 -16 10 -31 -6 -19 -21 8 -10 3 -19 -20 -39 -18 -14 -40 -26 -51
-26 -19 0 -56 46 -45 57 9 10 58 -16 51 -27 -3 -6 1 -10 10 -10 8 0 18 7 21
15 4 8 11 12 16 9 6 -4 8 1 5 12 -15 53 -17 74 -7 74 5 0 10 7 10 16 0 27 20
54 40 54 18 0 20 -6 16 -42z m411 -39 c-7 -53 -50 -101 -84 -93 -20 5 -23 3
-23 -24 0 -23 -9 -38 -39 -61 -21 -17 -41 -31 -44 -31 -3 0 -4 22 -3 50 3 54
24 87 60 92 13 2 20 10 20 21 -2 16 26 41 81 74 33 19 38 15 32 -28z m190 -24
c6 -14 8 -25 4 -25 -12 0 -31 23 -31 37 0 21 14 15 27 -12z m-403 -160 c-18
-27 -34 -29 -43 -4 -3 12 -1 12 14 -1 11 -9 16 -10 11 -2 -9 15 1 32 20 32 12
0 12 -4 -2 -25z m614 -128 c50 -24 84 -58 65 -64 -20 -7 -15 -23 5 -17 9 3 6
-2 -8 -10 -37 -23 -103 -20 -125 4 -15 17 -16 23 -5 33 10 10 11 9 5 -3 -5 -8
-5 -12 0 -8 4 4 15 2 24 -4 9 -7 5 0 -8 15 -23 25 -26 26 -42 11 -17 -15 -18
-15 -24 9 -4 14 -2 35 5 46 13 25 38 22 108 -12z m137 -213 c22 -1 49 3 60 8
19 11 19 10 3 -14 -14 -21 -15 -33 -7 -63 11 -40 61 -115 85 -128 8 -4 14 -14
14 -22 0 -8 9 -19 20 -25 11 -6 22 -21 26 -34 3 -13 16 -29 30 -36 13 -8 24
-17 24 -21 0 -14 82 -129 91 -129 5 0 9 -11 9 -24 0 -13 7 -29 15 -36 8 -7 15
-18 15 -25 0 -7 7 -15 15 -19 8 -3 14 -9 13 -14 -2 -4 4 -24 14 -43 9 -18 21
-45 27 -59 6 -14 19 -38 29 -55 10 -16 19 -40 19 -53 2 -20 -3 -18 -50 21 -42
35 -65 47 -117 57 -93 19 -110 27 -110 50 0 24 -5 24 65 0 32 -11 64 -20 71
-20 15 0 -154 255 -268 405 -67 88 -188 276 -188 291 0 4 12 3 28 -1 15 -5 45
-9 67 -11z m-598 -276 c-3 -8 -6 -5 -6 6 -1 11 2 17 5 13 3 -3 4 -12 1 -19z
m-808 -223 c0 -5 -6 -1 -14 9 -8 10 -11 24 -8 29 6 10 21 -16 22 -38z m-652
-67 c-3 -8 -6 -5 -6 6 -1 11 2 17 5 13 3 -3 4 -12 1 -19z m-17 -8 c0 -5 -4
-10 -10 -10 -5 0 -10 5 -10 10 0 6 5 10 10 10 6 0 10 -4 10 -10z m2385 -218
l20 -14 -20 7 c-11 4 -27 7 -35 8 -21 0 -40 17 -40 34 0 16 17 8 75 -35z m64
-39 c2 -2 -5 -3 -17 -3 -14 0 -22 6 -22 16 0 14 3 15 18 3 9 -7 19 -15 21 -16z
m76 -33 c28 -10 41 -19 30 -19 -20 0 -109 38 -90 39 6 0 33 -9 60 -20z m-2976
-467 c11 -9 18 -20 15 -25 -9 -13 -24 -9 -24 7 0 8 -4 15 -10 15 -5 0 -10 5
-10 10 0 14 7 13 29 -7z m998 -21 c9 -23 10 -33 1 -38 -6 -4 -8 -3 -4 4 3 6 2
13 -3 16 -5 4 -13 2 -16 -4 -9 -15 -35 7 -35 30 0 40 39 35 57 -8z m1248 -92
c-7 -12 -288 -12 -325 0 -15 5 48 8 153 9 117 1 176 -2 172 -9z m-122 -27
c-13 -2 -35 -2 -50 0 -16 2 -5 4 22 4 28 0 40 -2 28 -4z m492 -3 c3 -5 -1 -10
-10 -10 -9 0 -13 5 -10 10 3 6 8 10 10 10 2 0 7 -4 10 -10z m-2698 -32 c-3 -8
-6 -5 -6 6 -1 11 2 17 5 13 3 -3 4 -12 1 -19z m2404 -35 c-8 -15 -10 -15 -11
-2 0 17 10 32 18 25 2 -3 -1 -13 -7 -23z m-541 7 c0 -5 -5 -10 -11 -10 -5 0
-7 5 -4 10 3 6 8 10 11 10 2 0 4 -4 4 -10z m167 -12 c-3 -8 -6 -5 -6 6 -1 11
2 17 5 13 3 -3 4 -12 1 -19z m68 13 c3 -5 1 -12 -5 -16 -5 -3 -10 1 -10 9 0
18 6 21 15 7z m52 -13 c-3 -8 -6 -5 -6 6 -1 11 2 17 5 13 3 -3 4 -12 1 -19z
m47 7 c-4 -8 -8 -15 -10 -15 -2 0 -4 7 -4 15 0 8 4 15 10 15 5 0 7 -7 4 -15z
m73 -7 c-3 -8 -6 -5 -6 6 -1 11 2 17 5 13 3 -3 4 -12 1 -19z m29 -5 c-10 -10
-19 5 -10 18 6 11 8 11 12 0 2 -7 1 -15 -2 -18z m74 12 c0 -2 -7 -5 -15 -9 -9
-3 -15 0 -15 9 0 9 6 12 15 9 8 -4 15 -7 15 -9z m61 -12 c-8 -15 -10 -15 -11
-2 0 17 10 32 18 25 2 -3 -1 -13 -7 -23z m45 -2 c-12 -19 -24 -12 -19 10 4 13
9 17 15 11 6 -6 7 -15 4 -21z m-2526 -19 c0 -18 -47 -48 -58 -37 -3 3 0 5 6 5
7 0 12 5 12 10 0 6 -7 10 -15 10 -8 0 -15 5 -15 11 0 5 4 8 9 4 5 -3 12 -1 16
5 11 18 45 11 45 -8z m880 -12 c0 -5 -4 -10 -10 -10 -5 0 -10 5 -10 10 0 6 5
10 10 10 6 0 10 -4 10 -10z m-980 -16 c0 -8 -5 -12 -10 -9 -6 4 -8 11 -5 16 9
14 15 11 15 -7z"/>
<path d="M4362 4200 c0 -19 2 -27 5 -17 2 9 2 25 0 35 -3 9 -5 1 -5 -18z"/>
<path d="M1267 2713 c-11 -10 13 -33 34 -33 12 0 19 7 19 20 0 14 -7 20 -23
20 -13 0 -27 -3 -30 -7z m33 -13 c0 -5 -4 -10 -10 -10 -5 0 -10 5 -10 10 0 6
5 10 10 10 6 0 10 -4 10 -10z"/>
<path d="M1180 2546 c0 -9 7 -16 16 -16 17 0 14 22 -4 28 -7 2 -12 -3 -12 -12z"/>
<path d="M1240 2546 c0 -9 7 -16 16 -16 17 0 14 22 -4 28 -7 2 -12 -3 -12 -12z"/>
<path d="M2899 4693 c17 -31 40 -58 41 -48 0 6 -7 22 -17 35 -9 14 -10 19 -3
13 19 -17 37 -16 44 2 4 12 -3 15 -35 15 -35 0 -39 -2 -30 -17z"/>
<path d="M2984 4695 c3 -8 -2 -22 -11 -30 -22 -22 -15 -24 39 -12 41 10 47 14
42 32 -5 18 -4 18 11 -3 10 -13 21 -19 28 -15 7 5 44 15 82 25 l70 16 -134 1
c-113 1 -132 -1 -127 -14z m27 -18 c-10 -9 -11 -8 -5 6 3 10 9 15 12 12 3 -3
0 -11 -7 -18z"/>
<path d="M4475 4173 c-5 -296 -9 -586 -9 -645 -1 -91 -3 -105 -16 -99 -25 13
-88 12 -96 0 -5 -9 -2 -10 9 -6 9 3 19 1 23 -4 3 -6 17 -8 31 -4 16 4 22 2 18
-5 -3 -5 -1 -10 4 -10 6 0 11 3 11 8 0 4 20 6 45 5 25 -1 45 2 45 7 0 12 -28
20 -45 14 -8 -4 -15 -2 -15 4 0 5 29 9 68 8 l67 -1 -4 -40 c-4 -51 -20 -83
-31 -65 -11 17 -106 30 -120 16 -5 -5 -20 -11 -32 -13 -87 -11 -88 -12 -82
-46 4 -24 3 -28 -5 -17 -6 8 -11 38 -12 65 l-1 50 -10 -49 c-5 -27 -7 -76 -6
-110 3 -55 5 -58 12 -28 l9 32 71 1 c39 1 74 1 77 1 37 -4 135 -2 176 4 l52 7
1 704 0 704 -27 24 c-25 22 -37 24 -114 25 l-86 0 -8 -537z m205 -741 c0 -5
-7 -9 -15 -9 -8 0 -15 4 -15 9 0 4 7 8 15 8 8 0 15 -4 15 -8z m-120 -131 c-10
-20 -69 -55 -78 -47 -8 9 37 48 47 41 6 -3 14 1 17 9 3 9 10 16 15 16 6 0 5
-8 -1 -19z m-166 -16 c-5 -11 -1 -14 12 -9 15 5 16 4 4 -4 -8 -6 -18 -8 -22
-6 -4 3 -8 1 -8 -4 0 -5 -7 -9 -14 -9 -25 0 -2 34 31 46 1 1 0 -6 -3 -14z"/>
<path d="M4222 4562 c-54 -112 -71 -164 -24 -77 32 62 83 178 79 182 -2 1 -27
-46 -55 -105z"/>
<path d="M4245 4504 c-15 -25 -25 -47 -22 -50 2 -2 16 18 31 46 34 63 27 66
-9 4z"/>
<path d="M2764 4385 c-17 -13 -17 -14 -2 -15 9 0 20 5 23 11 11 17 0 20 -21 4z"/>
<path d="M1890 4377 c0 -3 17 -16 38 -31 40 -28 71 -36 37 -10 -24 18 -75 46
-75 41z"/>
<path d="M3573 4347 c1 -15 5 -27 10 -27 10 0 9 22 -2 39 -7 10 -9 7 -8 -12z"/>
<path d="M2696 4318 c3 -4 9 -8 15 -8 5 0 9 4 9 8 0 5 -7 9 -15 9 -8 0 -12 -4
-9 -9z"/>
<path d="M3702 4255 c0 -16 2 -22 5 -12 2 9 2 23 0 30 -3 6 -5 -1 -5 -18z"/>
<path d="M4160 4266 c0 -2 7 -7 16 -10 8 -3 12 -2 9 4 -6 10 -25 14 -25 6z"/>
<path d="M3484 4241 c11 -12 27 -21 37 -21 10 0 24 -7 33 -15 8 -8 29 -15 47
-15 19 0 42 -8 54 -20 13 -12 29 -18 38 -14 13 5 9 10 -20 25 -21 11 -51 23
-68 28 -16 5 -55 19 -85 31 l-55 22 19 -21z"/>
<path d="M3670 4210 c0 -5 5 -10 10 -10 6 0 10 5 10 10 0 6 -4 10 -10 10 -5 0
-10 -4 -10 -10z"/>
<path d="M4160 4070 c0 -84 3 -150 7 -146 8 8 6 286 -2 294 -3 3 -5 -64 -5
-148z"/>
<path d="M4222 4130 c0 -14 2 -19 5 -12 2 6 2 18 0 25 -3 6 -5 1 -5 -13z"/>
<path d="M3680 4114 c0 -8 5 -12 10 -9 6 4 8 11 5 16 -9 14 -15 11 -15 -7z"/>
<path d="M3995 4100 c-3 -5 -1 -10 4 -10 6 0 11 5 11 10 0 6 -2 10 -4 10 -3 0
-8 -4 -11 -10z"/>
<path d="M3710 4090 c0 -5 5 -10 10 -10 6 0 10 5 10 10 0 6 -4 10 -10 10 -5 0
-10 -4 -10 -10z"/>
<path d="M3607 4083 c-4 -3 -7 -11 -7 -17 0 -6 5 -5 12 2 6 6 9 14 7 17 -3 3
-9 2 -12 -2z"/>
<path d="M3981 4064 c0 -11 3 -14 6 -6 3 7 2 16 -1 19 -3 4 -6 -2 -5 -13z"/>
<path d="M3847 4050 c-9 -11 -17 -26 -17 -34 0 -8 -7 -17 -16 -20 -36 -14 -3
-17 58 -5 91 17 99 28 46 55 -53 28 -50 28 -71 4z"/>
<path d="M4054 4040 c-19 -7 -40 -38 -32 -46 2 -1 15 -5 30 -8 30 -5 42 12 30
43 -5 14 -12 17 -28 11z"/>
<path d="M4268 3983 c7 -3 16 -2 19 1 4 3 -2 6 -13 5 -11 0 -14 -3 -6 -6z"/>
<path d="M3595 3930 c3 -5 10 -10 16 -10 5 0 9 5 9 10 0 6 -7 10 -16 10 -8 0
-12 -4 -9 -10z"/>
<path d="M3694 3868 c3 -13 6 -28 6 -34 0 -22 48 -13 54 10 11 40 7 46 -30 46
-33 0 -36 -2 -30 -22z"/>
<path d="M4173 3790 c0 -36 2 -50 4 -32 2 17 2 47 0 65 -2 17 -4 3 -4 -33z"/>
<path d="M2230 3696 c0 -2 7 -7 16 -10 8 -3 12 -2 9 4 -6 10 -25 14 -25 6z"/>
<path d="M3703 3647 c-60 -14 -65 -37 -9 -37 41 0 44 -2 50 -31 4 -20 10 -28
18 -23 8 5 9 2 5 -9 -5 -13 -1 -17 18 -17 20 0 25 5 25 25 0 21 -5 25 -28 25
-26 0 -29 3 -30 36 -1 20 -3 38 -4 39 -2 0 -22 -3 -45 -8z"/>
<path d="M2160 3619 c-18 -15 -19 -18 -5 -11 11 5 27 11 35 14 8 2 10 7 4 10
-5 4 -21 -3 -34 -13z"/>
<path d="M4171 3554 c0 -11 3 -14 6 -6 3 7 2 16 -1 19 -3 4 -6 -2 -5 -13z"/>
<path d="M3772 3453 c2 -36 7 -49 21 -51 14 -3 17 4 17 47 0 45 -3 51 -21 51
-18 0 -20 -5 -17 -47z"/>
<path d="M4174 3375 c0 -71 1 -99 3 -62 2 37 2 96 0 130 -2 34 -3 4 -3 -68z"/>
<path d="M4003 3483 c-49 -5 -46 5 -47 -135 -1 -75 2 -98 12 -98 7 0 20 -6 28
-14 7 -8 23 -12 34 -9 37 10 49 40 44 112 -6 94 -14 151 -22 149 -4 -1 -26 -3
-49 -5z m67 -196 c0 -2 -9 -12 -20 -22 -24 -21 -27 -14 -4 9 15 15 24 20 24
13z"/>
<path d="M2540 3394 c0 -8 5 -12 10 -9 6 3 10 10 10 16 0 5 -4 9 -10 9 -5 0
-10 -7 -10 -16z"/>
<path d="M575 3382 c-34 -13 -49 -24 -47 -35 1 -8 -2 -18 -8 -22 -6 -3 -7 0
-4 9 3 9 1 16 -5 16 -6 0 -11 -6 -11 -14 0 -8 -6 -17 -12 -19 -24 -10 20 -7
46 2 17 7 26 6 30 -2 5 -9 7 -9 12 1 3 6 15 12 25 12 12 0 17 5 14 10 -5 7 9
10 39 8 25 -2 46 -6 46 -10 0 -5 5 -8 10 -8 6 0 10 6 10 13 0 10 18 14 61 15
130 4 86 31 -61 38 -76 4 -105 1 -145 -14z m15 -32 c8 -5 11 -10 5 -10 -5 0
-17 5 -25 10 -8 5 -10 10 -5 10 6 0 17 -5 25 -10z"/>
<path d="M344 3357 c3 -10 6 -21 6 -23 0 -2 7 -4 15 -4 17 0 20 25 5 35 -6 4
-7 -1 -4 -12 5 -16 3 -15 -12 2 -15 18 -16 18 -10 2z"/>
<path d="M285 3340 c3 -5 8 -10 11 -10 2 0 4 5 4 10 0 6 -5 10 -11 10 -5 0 -7
-4 -4 -10z"/>
<path d="M775 3340 c-31 -8 -18 -13 25 -11 20 2 22 0 10 -8 -13 -9 -13 -11 3
-11 9 0 26 9 37 20 l20 20 -32 -1 c-18 -1 -46 -5 -63 -9z"/>
<path d="M3782 3320 c-10 -17 -10 -20 3 -20 8 0 15 9 15 20 0 11 -1 20 -3 20
-1 0 -8 -9 -15 -20z"/>
<path d="M200 3322 c0 -4 11 -9 26 -10 14 -1 23 2 19 8 -7 12 -45 14 -45 2z"/>
<path d="M910 3283 c0 -12 5 -25 10 -28 13 -8 13 15 0 35 -8 12 -10 11 -10 -7z"/>
<path d="M2570 3260 c0 -5 5 -10 10 -10 6 0 10 5 10 10 0 6 -4 10 -10 10 -5 0
-10 -4 -10 -10z"/>
<path d="M690 3241 c0 -5 7 -11 15 -15 8 -3 15 -1 15 3 0 5 -7 11 -15 15 -8 3
-15 1 -15 -3z"/>
<path d="M2544 3238 c3 -10 1 -18 -4 -18 -6 0 -10 -4 -10 -10 0 -5 4 -10 9
-10 14 0 20 26 9 41 -8 11 -9 10 -4 -3z"/>
<path d="M545 3230 c-8 -13 25 -13 45 0 12 8 9 10 -12 10 -15 0 -30 -4 -33
-10z"/>
<path d="M372 3221 c-8 -5 -12 -17 -10 -26 3 -17 4 -18 20 -2 9 9 25 17 35 17
15 0 16 2 3 10 -18 12 -31 12 -48 1z"/>
<path d="M754 3222 c-18 -12 -24 -52 -8 -52 8 0 14 -9 14 -21 0 -14 -5 -19
-14 -16 -11 4 -13 1 -9 -11 6 -15 5 -15 -10 -3 -15 11 -17 11 -17 -2 0 -8 7
-20 15 -27 9 -7 14 -19 11 -27 -3 -8 2 -13 14 -13 16 0 19 5 14 29 -7 33 8 48
26 26 16 -19 36 -19 44 0 3 10 -1 15 -13 15 -36 0 -53 11 -40 26 6 8 8 14 3
14 -16 0 31 29 48 30 14 0 16 -5 9 -22 -5 -14 -2 -32 7 -52 11 -21 17 -26 20
-16 3 8 10 18 15 22 13 8 17 48 5 48 -4 0 -8 14 -8 30 0 21 -5 30 -16 30 -8 0
-13 -4 -10 -9 3 -5 -5 -11 -19 -13 -13 -3 -22 -1 -19 3 3 5 -2 9 -11 9 -12 0
-15 -6 -10 -20 7 -22 -18 -29 -31 -8 -4 7 -3 8 4 4 7 -4 12 -1 12 8 0 18 -13
27 -26 18z"/>
<path d="M473 3213 c9 -2 23 -2 30 0 6 3 -1 5 -18 5 -16 0 -22 -2 -12 -5z"/>
<path d="M3917 3196 c-6 -15 1 -26 15 -26 4 0 8 9 8 20 0 23 -15 27 -23 6z"/>
<path d="M4378 3203 c7 -3 16 -2 19 1 4 3 -2 6 -13 5 -11 0 -14 -3 -6 -6z"/>
<path d="M4525 3191 c-3 -5 -1 -12 5 -16 5 -3 10 1 10 9 0 18 -6 21 -15 7z"/>
<path d="M3650 3189 c0 -4 11 -27 25 -50 14 -24 25 -51 24 -59 0 -8 -9 2 -20
23 -28 53 -33 46 -7 -9 13 -25 24 -40 26 -35 2 6 9 8 15 4 7 -4 8 0 2 13 -4
10 -10 28 -12 40 -5 20 -52 86 -53 73z"/>
<path d="M3960 3170 c0 -11 7 -20 15 -20 8 0 15 6 15 14 0 8 -7 16 -15 20 -10
4 -15 -1 -15 -14z"/>
<path d="M4370 3180 c0 -12 47 -12 75 0 15 6 8 9 -27 9 -27 1 -48 -3 -48 -9z"/>
<path d="M4696 3181 c-4 -7 -5 -15 -2 -18 9 -9 19 4 14 18 -4 11 -6 11 -12 0z"/>
<path d="M2580 3160 c0 -5 5 -10 11 -10 5 0 7 5 4 10 -3 6 -8 10 -11 10 -2 0
-4 -4 -4 -10z"/>
<path d="M3616 3155 c-9 -26 -7 -32 5 -12 6 10 9 21 6 23 -2 3 -7 -2 -11 -11z"/>
<path d="M4018 3135 c-2 -19 0 -35 4 -35 4 0 8 16 8 35 0 19 -2 35 -4 35 -2 0
-6 -16 -8 -35z"/>
<path d="M4181 3150 c-13 -148 -12 -167 14 -184 13 -9 27 -16 30 -16 3 0 5 20
5 45 0 30 5 47 16 53 15 8 14 12 -5 31 -12 12 -19 26 -16 31 3 5 -3 11 -14 15
-11 3 -22 16 -24 28 -4 20 -4 20 -6 -3z m16 -152 c-3 -8 -6 -5 -6 6 -1 11 2
17 5 13 3 -3 4 -12 1 -19z"/>
<path d="M407 3142 c4 -9 12 -23 19 -29 7 -7 14 -18 17 -25 6 -18 13 -8 20 30
5 25 3 32 -6 29 -6 -2 -22 0 -34 4 -18 7 -21 5 -16 -9z"/>
<path d="M4487 3140 c-4 -17 0 -20 29 -20 32 0 33 1 22 20 -7 11 -20 20 -29
20 -9 0 -19 -9 -22 -20z"/>
<path d="M4134 3108 c-4 -24 -7 -50 -6 -58 2 -8 5 -33 7 -54 6 -45 9 -51 25
-41 6 4 8 14 4 24 -4 9 -8 49 -9 88 -2 86 -9 100 -21 41z"/>
<path d="M2785 3130 c-3 -5 1 -10 10 -10 9 0 13 5 10 10 -3 6 -8 10 -10 10 -2
0 -7 -4 -10 -10z"/>
<path d="M4311 3124 c0 -11 3 -14 6 -6 3 7 2 16 -1 19 -3 4 -6 -2 -5 -13z"/>
<path d="M520 3099 c0 -17 4 -28 10 -24 6 3 10 17 10 31 0 13 -4 24 -10 24 -5
0 -10 -14 -10 -31z"/>
<path d="M4424 3123 c10 -11 37 -12 30 -2 -3 5 -12 9 -21 9 -9 0 -13 -3 -9 -7z"/>
<path d="M2822 3089 c0 -17 2 -28 5 -25 9 9 12 56 4 56 -5 0 -8 -14 -9 -31z"/>
<path d="M3788 3103 c-3 -13 -2 -23 4 -23 6 0 4 -8 -3 -17 -8 -9 -9 -14 -3
-10 6 3 27 7 47 9 28 1 36 7 40 25 2 13 0 23 -4 23 -5 0 -9 -6 -9 -14 0 -34
-57 -27 -62 8 -3 21 -3 21 -10 -1z"/>
<path d="M3990 3074 c0 -29 27 -32 46 -6 19 24 18 27 -16 28 -25 1 -30 -3 -30
-22z"/>
<path d="M4390 3088 c0 -4 14 -8 30 -8 17 0 30 4 30 9 0 5 -13 9 -30 9 -16 -1
-30 -5 -30 -10z"/>
<path d="M4546 3085 c4 -8 9 -15 13 -15 4 0 8 7 8 15 0 8 -6 15 -13 15 -8 0
-11 -6 -8 -15z"/>
<path d="M4510 3045 c0 -14 -7 -16 -34 -13 -19 2 -32 0 -30 -4 3 -4 30 -8 60
-8 47 0 55 3 52 18 -4 23 -48 29 -48 7z"/>
<path d="M3930 3039 c0 -6 7 -17 16 -26 18 -19 40 -4 31 21 -7 18 -47 22 -47
5z"/>
<path d="M510 2985 c0 -8 2 -15 4 -15 2 0 6 7 10 15 3 8 1 15 -4 15 -6 0 -10
-7 -10 -15z"/>
<path d="M4413 2993 c9 -2 23 -2 30 0 6 3 -1 5 -18 5 -16 0 -22 -2 -12 -5z"/>
<path d="M2130 2970 c0 -5 5 -10 11 -10 5 0 7 5 4 10 -3 6 -8 10 -11 10 -2 0
-4 -4 -4 -10z"/>
<path d="M4520 2945 c0 -10 -10 -15 -30 -15 -16 0 -30 -4 -30 -8 0 -5 17 -8
38 -6 20 2 47 3 60 3 20 1 21 3 10 21 -15 23 -48 27 -48 5z"/>
<path d="M2470 2891 c-6 -13 -6 -22 -1 -26 9 -5 31 24 31 39 0 14 -20 4 -30
-13z"/>
<path d="M4664 2893 c11 -11 46 -14 46 -3 0 6 -12 10 -27 10 -14 0 -23 -3 -19
-7z"/>
<path d="M4448 2883 c7 -3 16 -2 19 1 4 3 -2 6 -13 5 -11 0 -14 -3 -6 -6z"/>
<path d="M2005 2850 c-4 -6 6 -10 23 -10 16 0 45 -3 63 -6 l34 -5 -25 15 c-28
17 -86 21 -95 6z"/>
<path d="M2011 2814 c0 -11 3 -14 6 -6 3 7 2 16 -1 19 -3 4 -6 -2 -5 -13z"/>
<path d="M1220 2800 c-18 -6 -7 -8 37 -6 35 1 66 6 70 9 9 10 -77 7 -107 -3z"/>
<path d="M670 2751 c-16 -31 12 -40 94 -30 119 15 106 44 -20 48 -54 2 -64 -1
-74 -18z m140 -11 c-8 -5 -22 -9 -30 -9 -10 0 -8 3 5 9 27 12 43 12 25 0z"/>
<path d="M1610 2745 c1 -26 2 -28 11 -12 8 14 8 22 0 30 -8 8 -11 3 -11 -18z"/>
<path d="M950 2745 c11 -13 10 -14 -4 -9 -16 6 -17 0 -11 -67 3 -41 8 -82 11
-93 4 -13 2 -17 -7 -14 -11 4 -17 -21 -25 -111 -6 -64 -15 -128 -19 -143 -7
-26 -5 -28 25 -28 24 0 31 -4 26 -15 -3 -8 -1 -15 4 -15 9 0 6 -31 -7 -80 -3
-14 -7 -28 -7 -32 -1 -3 -4 -9 -8 -13 -4 -4 -2 -16 5 -26 9 -15 9 -23 -1 -39
-6 -11 -12 -29 -12 -40 0 -11 -1 -20 -3 -20 -1 0 -17 4 -34 9 -27 8 -33 6 -38
-9 -3 -10 -5 -22 -4 -26 1 -5 0 -16 -4 -24 -9 -24 -15 -73 -11 -85 6 -14 106
-4 126 13 8 6 18 9 22 5 4 -4 4 0 1 8 -4 11 0 15 14 14 11 -1 23 -4 27 -7 3
-4 19 -2 35 4 16 5 37 7 47 2 9 -4 22 -6 27 -5 29 8 63 10 87 5 27 -5 27 -6
12 -30 -15 -22 -23 -24 -93 -24 -42 0 -83 -5 -91 -10 -12 -8 -9 -10 13 -10 28
0 37 -14 15 -23 -9 -4 -8 -6 3 -6 8 -1 20 4 26 10 16 16 104 13 115 -3 16 -27
21 -80 7 -88 -7 -5 -17 -6 -22 -3 -5 3 -7 0 -5 -8 3 -8 16 -14 29 -14 22 0 25
-5 21 -35 -1 -5 -9 -7 -17 -4 -11 5 -13 2 -9 -11 4 -10 14 -15 25 -12 12 3 19
0 19 -9 0 -10 -13 -14 -44 -14 -49 0 -76 -7 -76 -21 0 -6 9 -5 20 1 17 9 20 8
20 -10 0 -14 7 -20 23 -21 22 0 22 0 -2 -10 -17 -6 -27 -6 -31 1 -5 8 -15 8
-34 0 -34 -13 -39 -13 -31 0 3 5 -1 20 -11 32 -11 16 -15 17 -11 6 4 -10 2
-18 -3 -18 -6 0 -10 4 -10 9 0 12 -48 1 -61 -15 -9 -11 -8 -14 4 -14 9 0 20
-7 25 -16 6 -11 11 -13 16 -5 4 6 2 11 -4 11 -6 0 -8 5 -5 10 10 16 45 12 39
-4 -5 -12 6 -15 57 -15 35 1 73 5 84 10 20 10 20 10 1 -5 -20 -16 -33 -19 -95
-18 -19 0 -42 -7 -53 -18 -20 -18 -20 -18 1 -25 20 -6 19 -8 -14 -42 -31 -32
-37 -34 -52 -22 -11 9 -14 10 -9 2 4 -9 -7 -19 -34 -30 -48 -21 -50 -29 -10
-36 35 -7 39 -29 10 -50 -11 -8 -18 -16 -15 -19 3 -3 -4 -13 -15 -23 -11 -10
-20 -13 -20 -7 0 7 6 12 13 12 7 1 6 5 -5 14 -15 11 -16 26 -8 142 15 224 21
414 12 414 -26 0 -42 -28 -45 -80 -2 -40 -7 -54 -17 -52 -10 2 -11 0 -3 -10 6
-7 9 -33 7 -58 -2 -25 -5 -73 -6 -107 -2 -60 -3 -63 -35 -78 -39 -19 -44 -29
-7 -15 35 14 34 14 34 -26 0 -31 -2 -35 -20 -29 -12 4 -28 1 -36 -6 -8 -7 -35
-22 -59 -34 -40 -19 -42 -22 -25 -32 14 -10 19 -9 23 1 3 8 15 12 31 9 21 -4
24 -2 20 14 -5 17 0 20 29 21 23 1 34 -3 34 -13 0 -8 -6 -15 -14 -15 -7 0 -13
-4 -13 -10 0 -5 6 -7 13 -5 9 4 11 -7 9 -39 -4 -40 -7 -46 -32 -51 -18 -4 -27
-11 -24 -20 5 -12 -69 -49 -92 -44 -5 1 -11 1 -14 -1 -15 -5 -60 -8 -60 -3 0
3 8 12 18 20 58 47 -63 -30 -193 -122 -82 -58 -219 -154 -303 -212 -151 -105
-152 -106 -152 -144 l0 -38 103 70 c56 39 196 134 312 212 160 109 211 149
215 167 3 14 12 26 20 28 42 10 70 9 70 0 0 -6 6 -6 15 2 10 9 15 9 15 1 0
-25 37 -10 51 21 8 17 20 34 28 36 9 3 11 0 6 -8 -6 -10 -3 -12 11 -7 19 7 19
7 0 -8 -10 -8 -23 -12 -27 -9 -5 3 -9 0 -9 -5 0 -6 -1 -14 -2 -18 -2 -3 7 -7
19 -8 12 -1 20 2 17 6 -8 13 28 27 69 27 20 0 40 -4 43 -9 3 -5 10 -6 16 -3 7
4 8 2 4 -4 -10 -16 -33 -15 -39 1 -4 9 -6 9 -6 -1 -2 -21 23 -23 100 -8 41 8
93 18 117 21 23 4 42 12 42 18 0 5 3 8 6 4 13 -13 45 31 43 59 -1 16 2 43 6
59 8 27 7 29 -8 16 -25 -20 -21 2 4 23 25 21 12 36 -25 29 -29 -6 -49 -41 -44
-78 3 -27 4 -27 18 -10 9 11 10 16 3 11 -8 -4 -13 -2 -13 4 0 7 7 9 16 6 9 -3
20 -6 25 -6 5 0 9 -5 9 -11 0 -5 -4 -8 -9 -4 -5 3 -13 0 -17 -6 -4 -7 -3 -9 3
-6 6 4 14 0 17 -9 5 -14 1 -16 -24 -11 -16 4 -30 2 -30 -3 0 -12 -67 -43 -78
-36 -5 3 -19 -7 -32 -21 -15 -17 -25 -23 -28 -15 -2 7 -8 10 -13 6 -5 -3 -9 0
-9 5 0 6 -3 10 -7 10 -5 -1 -17 -1 -27 0 -15 1 -17 4 -9 12 7 7 10 26 7 43 -5
26 -4 28 6 13 8 -12 18 -16 31 -12 10 4 19 2 19 -4 0 -7 8 -7 23 -2 12 5 21
16 19 25 -2 9 4 16 14 16 11 0 14 5 10 16 -4 10 1 22 11 29 15 11 13 13 -21
13 -22 0 -34 -3 -27 -7 14 -9 -27 -30 -46 -24 -16 6 39 63 61 63 9 0 16 4 16
9 0 5 7 12 16 15 9 4 13 2 8 -5 -8 -14 64 -3 82 12 6 5 15 4 21 -2 7 -7 12 -6
16 5 4 9 2 16 -4 16 -6 0 -7 5 -4 10 13 21 25 8 25 -27 l0 -38 20 44 c11 24
20 47 20 53 0 5 18 36 41 70 35 51 40 64 31 83 -9 19 -7 26 5 37 14 11 15 10
9 -10 -11 -33 7 -27 29 11 10 17 25 38 32 45 7 7 13 22 13 32 0 11 6 23 13 27
6 4 18 20 26 36 12 23 12 29 1 40 -10 10 -11 9 -5 -3 8 -13 7 -13 -8 -1 -10 8
-20 11 -23 8 -3 -3 -17 -1 -31 4 -22 8 -24 7 -19 -7 5 -14 4 -15 -9 -4 -9 7
-15 23 -13 34 2 17 11 22 43 24 22 1 47 6 55 9 8 3 19 5 23 4 5 -1 6 3 3 8 -3
5 1 12 10 15 14 5 14 9 3 23 -8 9 -12 18 -9 20 3 3 -6 11 -20 18 -22 13 -23
14 -5 15 11 1 14 4 8 7 -21 8 -15 26 7 20 11 -3 20 -1 20 4 0 5 9 9 20 9 11 0
20 5 20 10 0 17 18 11 23 -7 4 -17 5 -17 6 0 1 12 5 16 14 11 9 -6 9 -5 0 8
-7 8 -11 17 -8 19 4 5 -33 11 -65 12 -8 0 -53 -5 -100 -12 -46 -6 -137 -11
-200 -11 -173 0 -311 30 -212 46 43 7 60 34 22 34 -11 0 -20 -4 -20 -10 0 -5
-9 -10 -21 -10 -19 0 -20 5 -17 73 l4 72 70 6 c38 3 61 6 50 7 -12 1 -16 7
-12 18 3 9 6 21 6 27 0 6 7 2 15 -9 14 -18 14 -17 4 9 -11 23 -18 27 -54 27
-65 0 -67 8 -64 177 3 126 2 148 -11 148 -10 0 -15 10 -15 30 0 29 -10 45 -29
45 -5 0 -3 -7 4 -15z m28 -338 c-3 -25 -35 -35 -52 -16 -8 9 -8 10 2 5 7 -4
12 -1 12 8 0 9 4 16 9 16 4 0 7 15 5 33 l-3 32 15 -28 c8 -16 14 -38 12 -50z
m135 -357 c14 0 17 -5 13 -16 -5 -14 -1 -15 26 -9 42 9 42 9 107 2 84 -10 171
-29 171 -37 0 -9 -70 -24 -77 -16 -3 3 5 10 18 15 23 9 23 10 2 10 -35 1 -52
-9 -46 -27 4 -9 3 -14 -2 -10 -4 4 -17 3 -28 -3 -26 -15 -105 -20 -113 -8 -3
5 -10 6 -16 3 -7 -4 -8 -2 -4 4 5 8 -1 12 -18 12 -19 0 -24 4 -21 19 2 11 -3
22 -11 25 -9 4 -14 -1 -14 -15 0 -19 -5 -20 -57 -17 -57 4 -58 4 -61 37 -6 56
0 60 59 45 30 -8 62 -14 72 -14z m-66 -101 c-14 -8 -22 -8 -30 0 -8 8 -3 11
19 11 25 -1 27 -2 11 -11z m262 -56 c6 -10 11 -13 11 -6 0 6 9 9 21 6 16 -4
20 -12 16 -29 -3 -16 0 -24 9 -24 8 0 14 -5 14 -11 0 -5 -4 -7 -10 -4 -5 3 -7
0 -4 -9 3 -9 -3 -20 -15 -28 -30 -19 -26 -28 8 -18 24 7 29 5 24 -6 -3 -8 -8
-12 -12 -10 -11 7 -36 -12 -28 -21 5 -4 12 -2 16 6 5 7 10 11 12 10 2 -2 13 2
24 8 16 10 18 14 8 24 -18 18 -16 30 2 23 8 -4 15 -1 15 7 0 7 3 9 6 6 4 -4 1
-14 -7 -23 -13 -16 -11 -17 13 -11 23 6 25 4 21 -13 -3 -11 -10 -20 -15 -20
-5 0 -6 5 -3 11 4 6 -2 5 -13 -2 -12 -7 -18 -17 -15 -23 3 -5 1 -6 -4 -3 -6 4
-16 0 -23 -8 -7 -9 -21 -13 -30 -10 -20 6 -33 -16 -23 -42 6 -15 5 -16 -9 -3
-9 8 -14 18 -12 22 2 3 -1 12 -8 20 -7 7 -14 20 -16 28 -1 8 -8 25 -14 37 -12
25 -6 38 19 38 9 0 18 6 21 13 3 9 -3 12 -14 10 -14 -2 -19 4 -21 22 -4 49 16
67 36 33z m-59 -39 c0 -8 -5 -12 -10 -9 -6 4 -8 11 -5 16 9 14 15 11 15 -7z
m-3 -54 c-1 -11 -5 -20 -9 -20 -4 0 -8 9 -8 20 0 11 4 20 9 20 6 0 9 -9 8 -20z
m-329 -85 c-3 -3 -9 2 -12 12 -6 14 -5 15 5 6 7 -7 10 -15 7 -18z m502 -3 c0
-4 -9 -8 -20 -8 -11 0 -20 4 -20 8 0 4 9 8 20 8 11 0 20 -4 20 -8z m-145 -152
c-3 -5 -12 -10 -18 -10 -7 0 -6 4 3 10 19 12 23 12 15 0z m-161 -71 c-31 -12
-39 -10 -19 5 11 8 24 12 29 8 5 -3 1 -9 -10 -13z m144 -9 c-8 -12 -24 -20
-38 -20 -14 0 -31 -5 -38 -12 -9 -9 -13 -7 -18 6 -4 10 -1 23 6 29 10 9 11 9
5 -2 -6 -10 -1 -12 26 -6 19 4 41 11 49 16 21 12 22 11 8 -11z m-41 -49 c0
-10 -6 -17 -13 -14 -7 2 -15 0 -18 -6 -9 -14 -36 -2 -36 16 0 9 6 13 13 10 8
-3 20 -1 28 4 21 13 28 11 26 -10z m-107 -12 c0 -5 -4 -7 -10 -4 -5 3 -10 1
-10 -5 0 -6 -5 -8 -11 -4 -8 4 -7 9 2 15 19 12 29 11 29 -2z m-127 -54 c-3 -9
-8 -14 -10 -11 -3 3 -2 9 2 15 9 16 15 13 8 -4z m27 -5 c0 -5 -5 -10 -11 -10
-5 0 -7 5 -4 10 3 6 8 10 11 10 2 0 4 -4 4 -10z m-230 -24 c0 -3 -4 -8 -10
-11 -5 -3 -10 -1 -10 4 0 6 5 11 10 11 6 0 10 -2 10 -4z m277 -82 c-9 -9 -27
6 -27 22 0 13 2 13 16 -1 9 -9 14 -18 11 -21z m-101 -36 c-10 -6 -20 -7 -24
-3 -9 8 20 25 31 18 5 -3 2 -10 -7 -15z"/>
<path d="M1550 2739 c0 -5 5 -7 10 -4 6 3 10 8 10 11 0 2 -4 4 -10 4 -5 0 -10
-5 -10 -11z"/>
<path d="M1582 2730 c0 -14 2 -19 5 -12 2 6 2 18 0 25 -3 6 -5 1 -5 -13z"/>
<path d="M986 2724 c-8 -20 -8 -24 2 -24 4 0 8 9 9 20 2 24 -3 26 -11 4z"/>
<path d="M1033 2725 c-3 -9 -3 -19 1 -22 3 -4 6 1 6 10 0 10 5 17 11 17 6 0 9
-9 6 -20 -3 -11 -1 -18 4 -14 5 3 9 14 9 25 0 23 -28 26 -37 4z"/>
<path d="M1946 2695 c-18 -28 -21 -45 -6 -45 6 0 6 -9 -1 -26 -15 -40 -6 -38
29 5 27 34 30 44 22 65 -12 32 -23 33 -44 1z"/>
<path d="M1531 2692 c-6 -2 -9 -8 -5 -13 3 -5 0 -9 -6 -9 -6 0 -8 -4 -5 -10 3
-5 1 -10 -6 -10 -7 0 -9 -10 -7 -25 3 -14 1 -28 -5 -32 -6 -4 -7 -1 -2 7 5 8
4 11 -2 7 -5 -3 -8 -21 -5 -38 l5 -33 24 30 c25 31 63 104 63 120 0 10 -28 13
-49 6z"/>
<path d="M1158 2673 c7 -3 16 -2 19 1 4 3 -2 6 -13 5 -11 0 -14 -3 -6 -6z"/>
<path d="M2101 2654 c0 -11 3 -14 6 -6 3 7 2 16 -1 19 -3 4 -6 -2 -5 -13z"/>
<path d="M4560 2604 c0 -8 5 -12 10 -9 6 4 8 11 5 16 -9 14 -15 11 -15 -7z"/>
<path d="M1399 2590 c-5 -4 3 -7 20 -8 17 0 33 3 35 7 6 9 -40 9 -55 1z"/>
<path d="M1892 2580 c7 -11 16 -20 20 -20 5 0 3 9 -4 20 -7 11 -16 20 -20 20
-5 0 -3 -9 4 -20z"/>
<path d="M4590 2590 c0 -5 7 -10 15 -10 8 0 15 5 15 10 0 6 -7 10 -15 10 -8 0
-15 -4 -15 -10z"/>
<path d="M4693 2583 c4 -6 2 -13 -5 -15 -8 -3 -6 -6 4 -10 17 -7 19 15 3 29
-4 4 -5 3 -2 -4z"/>
<path d="M4650 2573 c5 -2 8 -9 4 -14 -3 -5 0 -9 6 -9 15 0 7 23 -8 26 -7 1
-8 0 -2 -3z"/>
<path d="M1466 2555 c4 -8 8 -15 10 -15 2 0 4 7 4 15 0 8 -4 15 -10 15 -5 0
-7 -7 -4 -15z"/>
<path d="M8 2553 c7 -3 16 -2 19 1 4 3 -2 6 -13 5 -11 0 -14 -3 -6 -6z"/>
<path d="M1351 2544 c0 -11 3 -14 6 -6 3 7 2 16 -1 19 -3 4 -6 -2 -5 -13z"/>
<path d="M1396 2545 c-3 -8 -1 -15 4 -15 6 0 10 7 10 15 0 8 -2 15 -4 15 -2 0
-6 -7 -10 -15z"/>
<path d="M1420 2556 c0 -2 9 -6 20 -9 11 -3 18 -1 14 4 -5 9 -34 13 -34 5z"/>
<path d="M1457 2524 c-3 -3 -22 -6 -41 -6 -20 0 -39 -4 -42 -9 -4 -8 41 -6 89
4 7 1 11 -7 9 -18 l-4 -20 16 20 c8 11 16 23 16 28 0 8 -34 10 -43 1z"/>
<path d="M1524 2485 c-6 -19 -7 -38 -3 -41 10 -6 22 37 17 61 -2 9 -8 1 -14
-20z"/>
<path d="M1709 2507 c-9 -7 -16 -20 -16 -29 0 -15 3 -15 16 -5 12 10 14 9 7
-8 -13 -31 -12 -50 2 -47 6 1 12 -2 12 -7 0 -5 -6 -11 -12 -14 -8 -3 -3 -9 12
-15 22 -9 22 -11 5 -12 -17 0 -17 -2 -5 -10 10 -6 11 -10 3 -10 -20 0 -15 -21
6 -27 13 -3 18 -10 14 -21 -4 -10 -2 -13 5 -8 7 4 12 3 12 -2 0 -6 -7 -12 -15
-16 -8 -3 -15 -11 -15 -18 0 -7 9 -3 22 9 19 20 20 24 6 45 -8 13 -13 37 -11
55 1 18 -2 35 -7 38 -6 3 -10 21 -11 38 -1 18 -4 42 -7 54 -6 18 -10 20 -23
10z"/>
<path d="M1451 2487 c-1 -11 -6 -15 -13 -11 -7 5 -8 3 -3 -5 10 -16 29 2 22
21 -4 8 -6 7 -6 -5z"/>
<path d="M4650 2490 c19 -13 30 -13 30 0 0 6 -10 10 -22 10 -19 0 -20 -2 -8
-10z"/>
<path d="M1350 2476 c0 -9 8 -16 20 -16 11 0 20 5 20 12 0 6 -3 8 -7 5 -3 -4
-12 -2 -20 4 -10 9 -13 8 -13 -5z"/>
<path d="M1180 2469 c0 -5 4 -8 9 -5 5 3 11 -1 15 -9 3 -8 0 -15 -6 -15 -26 0
1 -10 40 -15 27 -3 42 -1 42 6 0 6 7 9 15 5 8 -3 15 -1 15 4 0 10 -60 7 -78
-4 -7 -4 -14 3 -18 19 -6 24 -34 36 -34 14z"/>
<path d="M1250 2470 c0 -5 7 -10 15 -10 8 0 15 5 15 10 0 6 -7 10 -15 10 -8 0
-15 -4 -15 -10z"/>
<path d="M1340 2438 c-12 -5 -17 -13 -13 -27 5 -19 31 -36 41 -26 3 3 -1 5 -9
5 -12 0 -11 2 1 11 13 9 13 10 -2 6 -9 -3 -18 0 -21 7 -3 8 7 12 34 12 22 0
44 5 50 11 12 12 -49 13 -81 1z"/>
<path d="M1450 2439 c0 -5 5 -7 10 -4 6 3 10 8 10 11 0 2 -4 4 -10 4 -5 0 -10
-5 -10 -11z"/>
<path d="M1500 2430 c0 -5 5 -10 11 -10 5 0 7 5 4 10 -3 6 -8 10 -11 10 -2 0
-4 -4 -4 -10z"/>
<path d="M1217 2397 c3 -5 11 -6 18 -3 8 3 16 0 19 -7 2 -7 5 -5 5 4 1 12 -7
16 -23 15 -13 0 -22 -5 -19 -9z"/>
<path d="M1294 2398 c4 -20 26 -21 26 -1 0 14 -2 15 -9 4 -6 -9 -10 -10 -14
-2 -4 8 -5 8 -3 -1z"/>
<path d="M1380 2402 c0 -5 7 -9 15 -9 8 0 12 4 9 9 -3 4 -9 8 -15 8 -5 0 -9
-4 -9 -8z"/>
<path d="M1795 2349 c-4 -6 -5 -12 -2 -15 2 -3 7 2 10 11 7 17 1 20 -8 4z"/>
<path d="M1226 2327 c3 -10 9 -15 12 -12 3 3 0 11 -7 18 -10 9 -11 8 -5 -6z"/>
<path d="M1370 2332 c0 -5 -11 -7 -25 -4 -14 2 -25 0 -25 -5 0 -5 16 -10 35
-10 34 0 45 10 25 22 -5 3 -10 2 -10 -3z"/>
<path d="M1270 2326 c0 -2 7 -6 15 -10 8 -3 15 -1 15 4 0 6 -7 10 -15 10 -8 0
-15 -2 -15 -4z"/>
<path d="M1178 2292 c-51 -7 -28 -17 42 -19 39 -1 70 3 70 8 0 5 -3 9 -7 10
-29 4 -82 5 -105 1z"/>
<path d="M1601 2248 c-1 -35 -8 -81 -16 -104 -5 -15 -2 -23 11 -28 10 -4 15
-4 12 0 -11 11 12 45 25 38 7 -4 9 -4 5 1 -4 4 -2 17 3 28 8 15 8 22 -2 28 -8
5 -9 9 -4 9 6 0 12 11 13 25 1 20 -3 25 -22 25 -17 0 -24 -6 -25 -22z"/>
<path d="M1151 2244 c0 -11 3 -14 6 -6 3 7 2 16 -1 19 -3 4 -6 -2 -5 -13z"/>
<path d="M1358 2253 c-27 -7 -21 -18 10 -21 18 -1 23 1 13 7 -11 7 -11 9 0 14
17 6 1 7 -23 0z"/>
<path d="M1407 2243 c4 -11 8 -13 11 -5 2 8 9 9 23 2 14 -8 19 -7 19 2 0 7
-13 14 -30 15 -23 2 -28 -1 -23 -14z"/>
<path d="M1264 2240 c2 -16 20 -14 24 2 3 10 2 10 -6 -1 -7 -9 -11 -10 -15 -2
-4 7 -5 8 -3 1z"/>
<path d="M1281 2177 c-1 -11 -6 -15 -13 -11 -7 5 -8 3 -3 -5 10 -16 29 2 22
21 -4 8 -6 7 -6 -5z"/>
<path d="M1406 2181 c-19 -7 -19 -8 2 -13 15 -4 22 -2 22 8 0 8 -1 14 -2 13
-2 0 -12 -4 -22 -8z"/>
<path d="M1195 2171 c-6 -11 9 -23 19 -14 9 9 7 23 -3 23 -6 0 -12 -4 -16 -9z"/>
<path d="M1230 2165 c0 -8 2 -15 4 -15 2 0 6 7 10 15 3 8 1 15 -4 15 -6 0 -10
-7 -10 -15z"/>
<path d="M1355 2171 c-6 -11 9 -23 19 -14 9 9 7 23 -3 23 -6 0 -12 -4 -16 -9z"/>
<path d="M1167 2106 c-3 -8 1 -17 9 -20 25 -9 84 -7 84 3 0 13 -37 24 -50 16
-6 -4 -17 -2 -24 4 -10 9 -15 8 -19 -3z"/>
<path d="M1100 2100 c0 -5 9 -10 21 -10 11 0 17 5 14 10 -3 6 -13 10 -21 10
-8 0 -14 -4 -14 -10z"/>
<path d="M870 2069 c-9 -15 -8 -24 0 -35 17 -19 25 -11 28 25 3 35 -12 41 -28
10z"/>
<path d="M1626 2042 c2 -3 -1 -11 -7 -18 -7 -8 -7 -14 1 -19 13 -8 26 24 13
34 -5 5 -8 6 -7 3z"/>
<path d="M1596 1961 c-3 -4 -17 -6 -31 -3 -20 3 -25 0 -25 -16 0 -32 26 -33
49 -1 12 16 19 29 17 29 -3 0 -7 -4 -10 -9z"/>
<path d="M1535 1900 c-3 -5 1 -10 10 -10 9 0 13 5 10 10 -3 6 -8 10 -10 10 -2
0 -7 -4 -10 -10z"/>
<path d="M0 1679 c0 -101 3 -138 13 -142 9 -3 9 -9 -1 -28 -9 -16 -12 -56 -10
-122 l3 -99 75 116 c58 89 80 116 97 116 12 0 24 -3 26 -7 2 -5 0 -44 -4 -88
-5 -44 -10 -101 -11 -127 -1 -27 -5 -48 -9 -48 -4 0 -5 -16 -2 -35 5 -32 4
-35 -18 -34 -27 1 -80 16 -62 18 6 1 15 10 18 21 3 11 13 27 21 35 24 24 2 18
-67 -18 l-64 -33 -3 -82 -3 -82 78 -1 c120 -2 165 -10 239 -40 33 -13 37 -11
84 34 26 26 24 124 -3 133 -11 4 -16 12 -13 21 3 8 6 18 6 23 0 4 14 13 30 19
38 13 40 5 3 -11 -27 -11 -27 -12 -6 -15 12 -3 29 0 38 4 13 7 13 12 2 27 -10
14 -18 15 -40 7 l-27 -11 0 296 c0 266 -2 296 -16 290 -9 -3 -45 -6 -80 -6
-50 0 -64 -3 -64 -15 0 -20 -34 -19 -142 4 l-88 18 0 -138z"/>
<path d="M1075 1720 c-3 -5 -3 -10 2 -10 4 0 1 -5 -7 -11 -10 -7 -11 -9 -2 -7
8 2 13 8 12 13 -1 5 7 12 17 16 16 7 16 8 1 8 -9 1 -20 -3 -23 -9z"/>
<path d="M1142 1723 c-17 -7 -5 -23 18 -23 13 0 17 5 14 15 -6 16 -11 17 -32
8z"/>
<path d="M1166 1662 c-2 -4 -1 -14 5 -22 7 -12 9 -10 9 8 0 23 -5 28 -14 14z"/>
<path d="M1190 1651 c0 -6 4 -13 10 -16 6 -3 7 1 4 9 -7 18 -14 21 -14 7z"/>
<path d="M1093 1642 c-15 -5 -20 -11 -14 -20 6 -9 12 -8 26 8 10 11 16 20 14
19 -2 -1 -14 -4 -26 -7z"/>
<path d="M785 1630 c-3 -6 1 -7 9 -4 18 7 21 14 7 14 -6 0 -13 -4 -16 -10z"/>
<path d="M710 1600 c-13 -8 -12 -10 3 -10 9 0 17 5 17 10 0 12 -1 12 -20 0z"/>
<path d="M984 1603 c10 -11 37 -12 30 -2 -3 5 -12 9 -21 9 -9 0 -13 -3 -9 -7z"/>
<path d="M820 1580 c-8 -5 -12 -12 -9 -15 8 -8 39 5 39 16 0 11 -11 11 -30 -1z"/>
<path d="M765 1560 c-8 -13 5 -13 25 0 13 8 13 10 -2 10 -9 0 -20 -4 -23 -10z"/>
<path d="M958 1563 c-25 -6 -22 -20 4 -19 12 0 23 7 26 14 4 12 0 13 -30 5z"/>
<path d="M728 1553 c7 -3 16 -2 19 1 4 3 -2 6 -13 5 -11 0 -14 -3 -6 -6z"/>
<path d="M750 1530 c0 -5 5 -10 11 -10 5 0 7 5 4 10 -3 6 -8 10 -11 10 -2 0
-4 -4 -4 -10z"/>
<path d="M580 1519 c0 -5 5 -7 10 -4 6 3 10 8 10 11 0 2 -4 4 -10 4 -5 0 -10
-5 -10 -11z"/>
<path d="M780 1511 c0 -16 40 -23 56 -10 8 6 12 14 9 17 -2 3 -11 -1 -20 -8
-10 -8 -15 -9 -15 -1 0 6 -7 11 -15 11 -8 0 -15 -4 -15 -9z"/>
<path d="M498 1476 c-30 -19 -64 -37 -75 -40 -19 -6 -28 -36 -11 -36 4 0 8 7
8 16 0 10 5 14 15 10 9 -3 18 1 21 9 4 8 14 15 23 15 9 0 27 7 39 16 17 11 26
13 36 5 10 -8 12 -6 11 9 -2 31 -8 31 -67 -4z"/>
<path d="M738 1503 c-28 -7 -21 -18 12 -19 17 -1 29 3 27 9 -4 13 -16 16 -39
10z"/>
<path d="M2135 1489 c-11 -16 -2 -17 25 -2 24 12 24 13 3 13 -12 0 -25 -5 -28
-11z"/>
<path d="M650 1475 c0 -10 29 -24 34 -17 3 6 -3 12 -14 15 -11 3 -20 4 -20 2z"/>
<path d="M2218 1468 c5 -5 16 -8 23 -6 8 3 3 7 -10 11 -17 4 -21 3 -13 -5z"/>
<path d="M623 1463 c-15 -5 -17 -23 -4 -23 5 0 11 7 15 15 3 8 4 15 3 14 -1 0
-8 -3 -14 -6z"/>
<path d="M815 1460 c-3 -5 -2 -10 4 -10 5 0 13 5 16 10 3 6 2 10 -4 10 -5 0
-13 -4 -16 -10z"/>
<path d="M2185 1460 c3 -5 11 -10 16 -10 6 0 7 5 4 10 -3 6 -11 10 -16 10 -6
0 -7 -4 -4 -10z"/>
<path d="M710 1450 c0 -5 5 -10 10 -10 6 0 10 5 10 10 0 6 -4 10 -10 10 -5 0
-10 -4 -10 -10z"/>
<path d="M575 1440 c-3 -5 -1 -10 4 -10 6 0 11 5 11 10 0 6 -2 10 -4 10 -3 0
-8 -4 -11 -10z"/>
<path d="M1583 1429 c-2 -23 3 -25 10 -4 4 8 3 16 -1 19 -4 3 -9 -4 -9 -15z"/>
<path d="M465 1429 c-10 -15 1 -23 20 -15 9 3 13 10 10 16 -8 13 -22 13 -30
-1z"/>
<path d="M674 1429 c-3 -6 -1 -15 6 -19 9 -6 9 -9 0 -15 -7 -4 -13 1 -16 12
-3 10 -14 20 -25 20 -11 1 -19 -3 -17 -8 2 -6 6 -9 10 -7 3 2 16 -6 28 -17 18
-16 23 -17 30 -5 13 20 12 30 -1 30 -5 0 -7 5 -4 10 3 6 4 10 1 10 -3 0 -8 -5
-12 -11z"/>
<path d="M972 1433 c-6 -2 -10 -9 -6 -14 3 -5 -2 -9 -10 -9 -9 0 -16 -4 -16
-9 0 -17 38 1 43 20 3 10 4 19 4 18 -1 0 -8 -3 -15 -6z"/>
<path d="M722 1415 c10 -11 48 -14 48 -4 0 5 -12 9 -27 9 -14 0 -24 -2 -21 -5z"/>
<path d="M1938 1413 c6 -2 18 -2 25 0 6 3 1 5 -13 5 -14 0 -19 -2 -12 -5z"/>
<path d="M640 1370 c0 -5 5 -10 10 -10 6 0 10 5 10 10 0 6 -4 10 -10 10 -5 0
-10 -4 -10 -10z"/>
<path d="M2065 1370 c-19 -8 -19 -9 3 -9 12 -1 22 4 22 9 0 6 -1 10 -2 9 -2 0
-12 -4 -23 -9z"/>
<path d="M2300 1365 c0 -8 2 -15 4 -15 2 0 6 7 10 15 3 8 1 15 -4 15 -6 0 -10
-7 -10 -15z"/>
<path d="M1880 1353 c-14 -3 -29 -8 -34 -13 -5 -5 8 -5 29 0 20 4 39 11 42 14
7 6 4 6 -37 -1z"/>
<path d="M1133 1328 c-23 -11 -32 -38 -13 -38 6 0 10 6 10 13 0 9 2 9 9 -1 6
-10 10 -7 13 12 3 14 5 26 4 25 0 0 -11 -5 -23 -11z"/>
<path d="M2145 1332 c6 -5 21 -13 34 -17 17 -5 22 -4 19 6 -3 8 -18 15 -34 17
-19 2 -25 0 -19 -6z"/>
<path d="M540 1317 c-14 -8 -31 -12 -38 -9 -6 2 -12 -3 -12 -12 0 -9 5 -16 10
-16 6 0 10 -7 10 -15 0 -13 4 -14 20 -5 25 13 27 32 3 23 -10 -3 -3 6 16 21
37 28 32 34 -9 13z"/>
<path d="M566 1294 c-9 -24 -2 -26 12 -4 7 11 8 20 3 20 -5 0 -12 -7 -15 -16z"/>
<path d="M614 1254 c3 -7 1 -16 -4 -19 -13 -8 -13 -25 -1 -25 13 0 66 50 55
51 -5 0 -19 2 -32 3 -15 2 -21 -2 -18 -10z"/>
<path d="M2157 1248 c6 -10 45 -10 60 0 7 5 -4 8 -26 7 -22 0 -37 -3 -34 -7z"/>
<path d="M2310 1249 c0 -12 52 -21 62 -11 6 6 -4 11 -26 14 -20 2 -36 1 -36
-3z"/>
<path d="M485 1221 c-3 -5 -1 -12 5 -16 5 -3 10 1 10 9 0 18 -6 21 -15 7z"/>
<path d="M545 1210 c-29 -6 -29 -6 -6 -14 14 -5 27 -4 34 3 15 15 7 18 -28 11z"/>
<path d="M1665 1209 c-4 -6 -5 -12 -2 -15 2 -3 7 2 10 11 7 17 1 20 -8 4z"/>
<path d="M2368 1155 c-10 -38 -16 -70 -15 -72 2 -1 13 0 25 4 18 4 22 12 21
42 -1 20 -4 50 -8 66 -6 27 -8 23 -23 -40z"/>
<path d="M860 1129 c0 -5 5 -7 10 -4 6 3 10 8 10 11 0 2 -4 4 -10 4 -5 0 -10
-5 -10 -11z"/>
<path d="M2067 1091 c-3 -13 -1 -18 9 -14 7 2 10 11 7 19 -7 19 -10 18 -16 -5z"/>
<path d="M2265 1059 c-4 -6 -5 -12 -2 -15 2 -3 7 2 10 11 7 17 1 20 -8 4z"/>
<path d="M1310 988 c0 -20 20 -68 29 -68 3 0 12 4 18 8 9 6 5 17 -17 43 -21
24 -29 29 -30 17z"/>
<path d="M2095 930 c3 -5 11 -10 16 -10 6 0 7 5 4 10 -3 6 -11 10 -16 10 -6 0
-7 -4 -4 -10z"/>
<path d="M1365 910 c-3 -5 -1 -10 4 -10 6 0 11 5 11 10 0 6 -2 10 -4 10 -3 0
-8 -4 -11 -10z"/>
<path d="M1006 134 c-9 -22 -8 -23 14 -17 23 6 26 19 6 26 -8 3 -17 -1 -20 -9z"/>
<path d="M740 40 c0 -24 16 -42 32 -38 12 2 10 8 -9 28 -16 17 -23 20 -23 10z"/>
<path d="M2519 38 c-9 -32 -5 -38 23 -38 l31 0 -23 20 c-22 19 -29 23 -31 18z"/>
<path d="M933 16 c6 -18 65 -19 83 -2 14 14 10 16 -36 15 -33 -1 -49 -6 -47
-13z"/>
</g>
</svg>
