<?xml version="1.0" encoding="UTF-8"?>
<svg version="1.1" xmlns="http://www.w3.org/2000/svg" width="32" height="32">
<path d="M0 0 C3.92061103 2.19278684 6.97809862 4.95619724 9 9 C10.34009135 20.6039728 10.34009135 20.6039728 7.5078125 25.66796875 C4.31531972 29.30423128 1.94759708 31.77508065 -2.9765625 32.34375 C-14.03729021 32.81744284 -14.03729021 32.81744284 -18.8125 28.625 C-23.61624433 23.64713274 -23.50615879 19.37124985 -23.4921875 12.57421875 C-22.75174943 7.19722801 -20.18398445 4.28471177 -16 1 C-11.26503433 -1.36748284 -5.10642777 -0.70318022 0 0 Z " fill="#938A7F" transform="translate(23,0)"/>
<path d="M0 0 C1.65 0.33 3.3 0.66 5 1 C5 3.31 5 5.62 5 8 C6.7015625 8.6496875 6.7015625 8.6496875 8.4375 9.3125 C9.613125 9.869375 10.78875 10.42625 12 11 C13.25497957 14.7649387 13.52064444 17.03008618 13 21 C10.52276642 24.92868312 7.96108333 28.37520363 3.4375 29.81640625 C0.16241293 30.06308749 -1.38207167 28.86994881 -4 27 C-3.649375 26.2575 -3.29875 25.515 -2.9375 24.75 C-1.95490707 21.8677274 -1.9673198 20.78823655 -3 18 C-4.32 17.67 -5.64 17.34 -7 17 C-5.25 12.125 -5.25 12.125 -3 11 C-2.34 11.33 -1.68 11.66 -1 12 C-1.020625 10.7625 -1.04125 9.525 -1.0625 8.25 C-1.06766681 5.3359175 -0.93015558 2.79046673 0 0 Z " fill="#6A462E" transform="translate(19,2)"/>
<path d="M0 0 C3.90854747 2.23098506 6.97291659 4.94583318 9 9 C9.04022391 11.3329866 9.04320247 13.66706666 9 16 C8.34 15.01 7.68 14.02 7 13 C5.00827818 12.30899447 3.00838196 11.64097297 1 11 C-0.43088528 8.13822943 0.40008303 6.06624227 1 3 C-1.475 2.505 -1.475 2.505 -4 2 C-4 3.32 -4 4.64 -4 6 C-9.57468542 9.61601216 -14.60567654 9.30720059 -21 9 C-21 6 -21 6 -19.9609375 4.39453125 C-14.27961919 -1.27279367 -7.64841339 -1.50330884 0 0 Z " fill="#A7A081" transform="translate(23,0)"/>
<path d="M0 0 C0.66 0.33 1.32 0.66 2 1 C2.6328125 3.06640625 2.6328125 3.06640625 3.125 5.5625 C3.29257812 6.38878906 3.46015625 7.21507812 3.6328125 8.06640625 C3.75398438 8.70449219 3.87515625 9.34257812 4 10 C5.98 10 7.96 10 10 10 C9.67 8.68 9.34 7.36 9 6 C11.5625 8.25 11.5625 8.25 14 11 C14.125 13.0625 14.125 13.0625 13 15 C10.8125 17.3125 10.8125 17.3125 8 19 C4.8125 19 4.8125 19 2 18 C0.625 15.9375 0.625 15.9375 0 14 C0.66 13.01 1.32 12.02 2 11 C1.69159401 8.84725052 1.69159401 8.84725052 1 7 C-0.32 6.67 -1.64 6.34 -3 6 C-1.125 1.125 -1.125 1.125 0 0 Z " fill="#3E2C17" transform="translate(15,13)"/>
<path d="M0 0 C0.33 2.97 0.66 5.94 1 9 C-1.31 8.34 -3.62 7.68 -6 7 C-6.33 7.99 -6.66 8.98 -7 10 C-7 9.34 -7 8.68 -7 8 C-10.63 8.33 -14.26 8.66 -18 9 C-18 7.02 -18 5.04 -18 3 C-14.73321906 1.36660953 -11.22331848 2.04050205 -7.62890625 2.16015625 C-4.47003136 1.96771365 -3.06455104 0 0 0 Z " fill="#7B7B77" transform="translate(18,6)"/>
<path d="M0 0 C0.66 0 1.32 0 2 0 C1.67 1.98 1.34 3.96 1 6 C1.99 6.33 2.98 6.66 4 7 C5.1875 9.5625 5.1875 9.5625 6 12 C5.34 12 4.68 12 4 12 C3.67 12.99 3.34 13.98 3 15 C0.13275314 14.42655063 -0.8614515 14.1385485 -3 12 C-2.625 8.375 -2.625 8.375 -2 5 C-3.27875 5.020625 -4.5575 5.04125 -5.875 5.0625 C-9.75 5.125 -9.75 5.125 -12 4 C-12 3.34 -12 2.68 -12 2 C-9.59511789 0.79755894 -8.10949969 0.93137721 -5.4375 1 C-3.95881779 1.03785426 -2.47844212 1.04629173 -1 1 C-0.67 0.67 -0.34 0.34 0 0 Z " fill="#899291" transform="translate(12,13)"/>
<path d="M0 0 C1.32 0.33 2.64 0.66 4 1 C4 3.31 4 5.62 4 8 C5.134375 8.33 6.26875 8.66 7.4375 9 C9.375 9.80078125 9.375 9.80078125 11 11 C11.969218 13.79200866 11.95072091 15.99397579 12 19 C10.35 18.67 8.7 18.34 7 18 C6.67 16.35 6.34 14.7 6 13 C4.68 12.67 3.36 12.34 2 12 C2 11.34 2 10.68 2 10 C1.34 10 0.68 10 0 10 C0 6.7 0 3.4 0 0 Z " fill="#302316" transform="translate(20,2)"/>
<path d="M0 0 C0.90492187 0.46019531 0.90492187 0.46019531 1.828125 0.9296875 C4.17475573 2.08612063 6.5626303 3.052134 9 4 C9 4.66 9 5.32 9 6 C4.37347931 10.1479151 -1.18193584 9.27510986 -7 9 C-7 6 -7 6 -5.46875 4.39453125 C-4.49421875 3.61142578 -4.49421875 3.61142578 -3.5 2.8125 C-2.8503125 2.28269531 -2.200625 1.75289063 -1.53125 1.20703125 C-1.0259375 0.80871094 -0.520625 0.41039063 0 0 Z " fill="#F8F8F6" transform="translate(9,0)"/>
<path d="M0 0 C4.46839215 -0.21278058 7.82262526 0.40861915 12 2 C9.875 4.5625 9.875 4.5625 7 7 C3.8125 7.0625 3.8125 7.0625 1 6 C-0.4375 4.0625 -0.4375 4.0625 -1 2 C-0.67 1.34 -0.34 0.68 0 0 Z " fill="#5F2F15" transform="translate(16,25)"/>
<path d="M0 0 C0.33 2.97 0.66 5.94 1 9 C-0.32 8.34 -1.64 7.68 -3 7 C-5.59154919 6.75970041 -5.59154919 6.75970041 -8.25 6.875 C-9.58804687 6.90207031 -9.58804687 6.90207031 -10.953125 6.9296875 C-11.62859375 6.95289063 -12.3040625 6.97609375 -13 7 C-13 6.34 -13 5.68 -13 5 C-11.35 5 -9.7 5 -8 5 C-8 4.34 -8 3.68 -8 3 C-2.25 0 -2.25 0 0 0 Z " fill="#656663" transform="translate(18,6)"/>
<path d="M0 0 C2.10592542 3.15888813 2.23390694 3.8496215 2.125 7.4375 C2.10695313 8.19933594 2.08890625 8.96117187 2.0703125 9.74609375 C2.03550781 10.86177734 2.03550781 10.86177734 2 12 C2 13.32 2 14.64 2 16 C1.34 16 0.68 16 0 16 C0.33 17.65 0.66 19.3 1 21 C0.34 21 -0.32 21 -1 21 C-1.19491452 19.54263913 -1.38069358 18.08405407 -1.5625 16.625 C-1.66691406 15.81289063 -1.77132813 15.00078125 -1.87890625 14.1640625 C-2 12 -2 12 -1 10 C-0.77377919 8.29636178 -0.59111527 6.58671299 -0.4375 4.875 C-0.35371094 3.96492187 -0.26992188 3.05484375 -0.18359375 2.1171875 C-0.12300781 1.41851562 -0.06242187 0.71984375 0 0 Z " fill="#7F5A45" transform="translate(19,2)"/>
<path d="M0 0 C4.50802601 1.25805377 7.4912812 2.90407165 11 6 C7.37 6 3.74 6 0 6 C0 4.02 0 2.04 0 0 Z " fill="#936448" transform="translate(9,26)"/>
<path d="M0 0 C1.32 0.33 2.64 0.66 4 1 C4.25 8.625 4.25 8.625 2 12 C2 11.34 2 10.68 2 10 C1.34 10 0.68 10 0 10 C0 6.7 0 3.4 0 0 Z " fill="#4E2919" transform="translate(20,2)"/>
<path d="M0 0 C3.96 0 7.92 0 12 0 C11.67 0.99 11.34 1.98 11 3 C10.01 2.67 9.02 2.34 8 2 C7.67 3.32 7.34 4.64 7 6 C7 5.34 7 4.68 7 4 C6.21625 3.896875 5.4325 3.79375 4.625 3.6875 C2 3 2 3 0 0 Z " fill="#987C5D" transform="translate(11,0)"/>
<path d="M0 0 C0.66 0.33 1.32 0.66 2 1 C2.6328125 3.28515625 2.6328125 3.28515625 3.125 6.0625 C3.29257812 6.98160156 3.46015625 7.90070312 3.6328125 8.84765625 C3.75398438 9.55792969 3.87515625 10.26820312 4 11 C3.34 11 2.68 11 2 11 C1.67 9.68 1.34 8.36 1 7 C-0.32 6.67 -1.64 6.34 -3 6 C-1.125 1.125 -1.125 1.125 0 0 Z " fill="#302823" transform="translate(15,13)"/>
<path d="M0 0 C1.875 0.1875 1.875 0.1875 4 1 C5.25 3.5625 5.25 3.5625 6 6 C4.1875 6.625 4.1875 6.625 2 7 C1.01 6.34 0.02 5.68 -1 5 C-0.67 3.35 -0.34 1.7 0 0 Z " fill="#917762" transform="translate(12,19)"/>
<path d="M0 0 C3.3 0 6.6 0 10 0 C9.67 1.32 9.34 2.64 9 4 C6.69 4 4.38 4 2 4 C1.34 2.68 0.68 1.36 0 0 Z " fill="#999892" transform="translate(1,8)"/>
<path d="M0 0 C2.1519437 3.22791555 2.20086443 4.28400809 2 8 C0.35 7.67 -1.3 7.34 -3 7 C-3.33 5.68 -3.66 4.36 -4 3 C-3.01 3 -2.02 3 -1 3 C-0.67 2.01 -0.34 1.02 0 0 Z " fill="#42311C" transform="translate(30,13)"/>
<path d="M0 0 C0.33 2.97 0.66 5.94 1 9 C-1.28341719 6.71658281 -3.12397258 4.59070454 -5 2 C-2 0 -2 0 0 0 Z " fill="#8C8779" transform="translate(18,6)"/>
<path d="M0 0 C1.32 0 2.64 0 4 0 C3.34 1.98 2.68 3.96 2 6 C1.01 6 0.02 6 -1 6 C-0.67 4.02 -0.34 2.04 0 0 Z " fill="#817C6C" transform="translate(6,18)"/>
<path d="M0 0 C-0.33 0.99 -0.66 1.98 -1 3 C-2.65 2.67 -4.3 2.34 -6 2 C-6 1.34 -6 0.68 -6 0 C-3.50907189 -1.24546405 -2.58919267 -0.7767578 0 0 Z " fill="#45220D" transform="translate(21,27)"/>
<path d="M0 0 C3.465 1.98 3.465 1.98 7 4 C6.67 4.66 6.34 5.32 6 6 C3.13275314 5.42655063 2.1385485 5.1385485 0 3 C0 2.01 0 1.02 0 0 Z " fill="#D0B69C" transform="translate(9,22)"/>
<path d="M0 0 C2 2 2 2 2.125 5.625 C2.08375 6.73875 2.0425 7.8525 2 9 C1.34 8.01 0.68 7.02 0 6 C-2.56282742 5.27034634 -2.56282742 5.27034634 -5 5 C-5 4.67 -5 4.34 -5 4 C-3.35 4 -1.7 4 0 4 C0 2.68 0 1.36 0 0 Z " fill="#726C64" transform="translate(30,7)"/>
</svg>
